<svg width="64" height="64" viewBox="0 0 64 64" fill="none" xmlns="http://www.w3.org/2000/svg">
<path d="M58 9.01221H28C25.243 9.01221 23 11.4612 23 14.4712V24.0052L6 24.0212C3.542 24.0212 1 25.7882 1 28.7452V43.5882C1 46.6192 3.592 48.0002 6 48.0002H6.386L9.081 53.3162C9.515 54.3262 10.354 54.9552 11.329 54.9982C11.364 54.9992 11.398 55.0002 11.433 55.0002C12.415 55.0002 13.347 54.3922 13.892 53.3742L16.614 48.0002H27C29.408 48.0002 32 46.6192 32 43.5882V43.0002H46.535L52.243 49.7662C52.904 50.5852 53.757 51.0332 54.594 51.0332C54.854 51.0332 55.112 50.9902 55.362 50.9022C56.402 50.5352 57.022 49.5022 57.022 48.1352L57.004 43.0002H58C60.851 43.0002 63 40.7992 63 37.8812V14.4712C63 11.4612 60.757 9.01221 58 9.01221ZM30 43.5882C30 45.3682 28.384 46.0002 27 46.0002H16C15.623 46.0002 15.278 46.2122 15.108 46.5482L12.119 52.4492C11.933 52.7942 11.662 53.0342 11.416 52.9992C11.154 52.9882 10.992 52.6992 10.892 52.4702L7.892 46.5482C7.722 46.2122 7.377 46.0002 7 46.0002H6C4.616 46.0002 3 45.3682 3 43.5882V28.7452C3 26.9752 4.546 26.0212 6.001 26.0212L27.404 25.9982C28.659 26.0682 30 26.8262 30 28.7452V43.5882ZM61 37.8812C61 39.6882 59.738 41.0002 58 41.0002H56C55.734 41.0002 55.479 41.1052 55.292 41.2942C55.105 41.4832 54.999 41.7372 55 42.0042L55.021 48.1392C55.021 48.6652 54.857 48.9582 54.695 49.0162C54.517 49.0792 54.155 48.9502 53.786 48.4942L47.765 41.3562C47.574 41.1302 47.295 41.0002 47 41.0002H32V28.7452C32 26.0992 30.156 24.1482 27.46 24.0002L25 24.0022V14.4702C25 12.5632 26.346 11.0112 28 11.0112H58C59.654 11.0112 61 12.5632 61 14.4702V37.8812Z" fill="#A7A7A7"/>
<path d="M16 28C13.243 28 11 30.243 11 33H13C13 31.346 14.346 30 16 30C17.654 30 19 31.346 19 33C19 34.654 17.654 36 16 36C15.447 36 15 36.447 15 37V41H17V37.899C19.279 37.434 21 35.415 21 33C21 30.243 18.757 28 16 28Z" fill="#A7A7A7"/>
<path d="M15 42H17V44H15V42Z" fill="#A7A7A7"/>
</svg>
