<svg width="64" height="64" viewBox="0 0 64 64" fill="none" xmlns="http://www.w3.org/2000/svg">
<path d="M62.5 40.136L50.5 33.136C50.347 33.0467 50.1731 32.9997 49.996 32.9997C49.8189 32.9997 49.645 33.0467 49.492 33.136L47 34.592V2C47 1.73478 46.8946 1.48043 46.7071 1.29289C46.5196 1.10536 46.2652 1 46 1H6C5.73478 1 5.48043 1.10536 5.29289 1.29289C5.10536 1.48043 5 1.73478 5 2V5H2C1.73478 5 1.48043 5.10536 1.29289 5.29289C1.10536 5.48043 1 5.73478 1 6V62C1 62.2652 1.10536 62.5196 1.29289 62.7071C1.48043 62.8946 1.73478 63 2 63H42C42.2652 63 42.5196 62.8946 42.7071 62.7071C42.8946 62.5196 43 62.2652 43 62V59.053C43.149 59.153 43.3 59.246 43.45 59.336L49.5 62.863C49.653 62.9523 49.8269 62.9993 50.004 62.9993C50.1811 62.9993 50.355 62.9523 50.508 62.863L56.554 59.337C58.5131 58.1883 60.1383 56.5479 61.2688 54.5783C62.3994 52.6087 62.9961 50.378 63 48.107V41C62.9996 40.8248 62.9533 40.6528 62.8655 40.5011C62.7778 40.3495 62.6517 40.2236 62.5 40.136ZM7 3H45V35.758L37.5 40.136C37.3483 40.2236 37.2222 40.3495 37.1345 40.5011C37.0467 40.6528 37.0004 40.8248 37 41V43H22V45H37V47H22V49H37.032C37.2459 51.9893 38.4817 54.8141 40.532 57H7V3ZM3 61V7H5V58C5 58.2652 5.10536 58.5196 5.29289 58.7071C5.48043 58.8946 5.73478 59 6 59H41V61H3ZM61 48.107C60.9962 50.0286 60.4906 51.916 59.5333 53.5822C58.576 55.2485 57.2002 56.6358 55.542 57.607L50 60.842L44.458 57.608C42.7995 56.637 41.4234 55.2495 40.4661 53.583C39.5087 51.9165 39.0034 50.0289 39 48.107V41.574L50 35.157L61 41.574V48.107Z" fill="#A7A7A7"/>
<path d="M49 40V41.142C48.0584 41.3844 47.2376 41.962 46.6916 42.7666C46.1457 43.5712 45.9122 44.5474 46.035 45.512C46.1577 46.4765 46.6283 47.3631 47.3583 48.0053C48.0883 48.6475 49.0277 49.0012 50 49C50.3956 49 50.7822 49.1173 51.1111 49.3371C51.44 49.5568 51.6964 49.8692 51.8478 50.2346C51.9991 50.6001 52.0387 51.0022 51.9616 51.3902C51.8844 51.7781 51.6939 52.1345 51.4142 52.4142C51.1345 52.6939 50.7781 52.8844 50.3902 52.9616C50.0022 53.0387 49.6001 52.9991 49.2346 52.8478C48.8692 52.6964 48.5568 52.44 48.3371 52.1111C48.1173 51.7822 48 51.3956 48 51H46C46.0033 51.8842 46.2995 52.7424 46.8423 53.4404C47.3851 54.1385 48.1439 54.637 49 54.858V56H51V54.858C51.9416 54.6156 52.7624 54.038 53.3084 53.2334C53.8543 52.4288 54.0878 51.4526 53.965 50.488C53.8423 49.5235 53.3717 48.6369 52.6417 47.9947C51.9117 47.3525 50.9723 46.9988 50 47C49.6044 47 49.2178 46.8827 48.8889 46.6629C48.56 46.4432 48.3036 46.1308 48.1522 45.7654C48.0009 45.3999 47.9613 44.9978 48.0384 44.6098C48.1156 44.2219 48.3061 43.8655 48.5858 43.5858C48.8655 43.3061 49.2219 43.1156 49.6098 43.0384C49.9978 42.9613 50.3999 43.0009 50.7654 43.1522C51.1308 43.3036 51.4432 43.56 51.6629 43.8889C51.8827 44.2178 52 44.6044 52 45H54C53.9967 44.1158 53.7005 43.2576 53.1577 42.5596C52.6149 41.8615 51.8561 41.363 51 41.142V40H49Z" fill="#A7A7A7"/>
<path d="M17.106 10.0212C17.0711 10.0123 17.0357 10.0053 17 10.0002H11C10.7348 10.0002 10.4804 10.1056 10.2929 10.2931C10.1054 10.4806 10 10.735 10 11.0002V17.0002C10 17.2654 10.1054 17.5198 10.2929 17.7073C10.4804 17.8949 10.7348 18.0002 11 18.0002H17C17.2652 18.0002 17.5196 17.8949 17.7071 17.7073C17.8946 17.5198 18 17.2654 18 17.0002V11.8882L21.651 8.75921L20.351 7.24121L17.106 10.0212ZM16 16.0002H12V12.0002H14.8L13.352 13.2412L14.652 14.7592L16 13.6002V16.0002Z" fill="#A7A7A7"/>
<path d="M17.106 26.0212C17.0711 26.0123 17.0357 26.0053 17 26.0002H11C10.7348 26.0002 10.4804 26.1056 10.2929 26.2931C10.1054 26.4806 10 26.735 10 27.0002V33.0002C10 33.2654 10.1054 33.5198 10.2929 33.7073C10.4804 33.8949 10.7348 34.0002 11 34.0002H17C17.2652 34.0002 17.5196 33.8949 17.7071 33.7073C17.8946 33.5198 18 33.2654 18 33.0002V27.8882L21.651 24.7592L20.351 23.2412L17.106 26.0212ZM16 32.0002H12V28.0002H14.8L13.352 29.2412L14.652 30.7592L16 29.6002V32.0002Z" fill="#A7A7A7"/>
<path d="M20.349 39.2412L17.106 42.0212C17.0711 42.0123 17.0357 42.0053 17 42.0002H11C10.7348 42.0002 10.4804 42.1056 10.2929 42.2931C10.1054 42.4806 10 42.735 10 43.0002V49.0002C10 49.2654 10.1054 49.5198 10.2929 49.7073C10.4804 49.8949 10.7348 50.0002 11 50.0002H17C17.2652 50.0002 17.5196 49.8949 17.7071 49.7073C17.8946 49.5198 18 49.2654 18 49.0002V43.8882L21.651 40.7592L20.349 39.2412ZM16 48.0002H12V44.0002H14.8L13.352 45.2412L14.652 46.7592L16 45.6002V48.0002Z" fill="#A7A7A7"/>
<path d="M42 11H22V13H42V11Z" fill="#A7A7A7"/>
<path d="M42 15H22V17H42V15Z" fill="#A7A7A7"/>
<path d="M42 27H22V29H42V27Z" fill="#A7A7A7"/>
<path d="M42 31H22V33H42V31Z" fill="#A7A7A7"/>
</svg>
