<svg width="49" height="48" viewBox="0 0 49 48" fill="none" xmlns="http://www.w3.org/2000/svg">
<g clip-path="url(#clip0_96_14403)">
<path d="M45.8008 35.3565V33C45.7982 30.6138 44.8492 28.3262 43.1619 26.6389C41.4746 24.9516 39.1869 24.0026 36.8008 24H28.5508C23.535 23.9991 18.6937 25.8408 14.9465 29.175L13.9505 30.0608L5.11028 31.95C4.5279 32.0769 4.00631 32.3989 3.6318 32.8626C3.25729 33.3263 3.05231 33.904 3.05078 34.5V36.75H2.30078C2.10187 36.75 1.9111 36.829 1.77045 36.9697C1.6298 37.1103 1.55078 37.3011 1.55078 37.5V40.5C1.55078 40.6989 1.6298 40.8897 1.77045 41.0303C1.9111 41.171 2.10187 41.25 2.30078 41.25H7.61828C7.79456 42.2981 8.33654 43.2499 9.14802 43.9363C9.95949 44.6227 10.9879 44.9993 12.0508 44.9993C13.1136 44.9993 14.1421 44.6227 14.9535 43.9363C15.765 43.2499 16.307 42.2981 16.4833 41.25H33.8683C34.0446 42.2981 34.5865 43.2499 35.398 43.9363C36.2095 44.6227 37.2379 44.9993 38.3008 44.9993C39.3636 44.9993 40.3921 44.6227 41.2035 43.9363C42.015 43.2499 42.557 42.2981 42.7333 41.25H45.0508C45.78 41.2509 46.4845 40.9856 47.0321 40.504C47.5796 40.0223 47.9325 39.3574 48.0246 38.634C48.1166 37.9106 47.9415 37.1784 47.5321 36.575C47.1226 35.9715 46.507 35.5383 45.8008 35.3565ZM43.67 30H37.5508V25.5382C38.8745 25.6736 40.1385 26.158 41.2136 26.9419C42.2887 27.7258 43.1364 28.7811 43.67 30ZM36.0508 30H30.8008V25.5H36.0508V30ZM29.3008 25.5V30H16.3048C19.7254 27.0977 24.0648 25.5031 28.5508 25.5H29.3008ZM14.3795 31.5H44.1508C44.2511 31.9937 44.3014 32.4962 44.3008 33V35.25H42.5338C41.7491 34.6145 40.8315 34.1637 39.8489 33.931C38.8663 33.6984 37.844 33.6897 36.8576 33.9058C35.8712 34.1219 34.9461 34.5572 34.1508 35.1793C33.3555 35.8015 32.7104 36.5946 32.2633 37.5H18.0883C17.6254 36.5617 16.95 35.7444 16.1158 35.113C15.2816 34.4815 14.3116 34.0535 13.2829 33.8627C12.2542 33.672 11.1952 33.724 10.1901 34.0144C9.18496 34.3048 8.26147 34.8257 7.49303 35.5358C7.53099 35.4453 7.55062 35.3481 7.55078 35.25V32.9633L14.3795 31.5ZM18.6268 39H31.7248C31.6673 39.2473 31.624 39.4977 31.595 39.75H18.7565C18.7275 39.4977 18.6842 39.2473 18.6268 39ZM5.42678 33.4192L6.05078 33.285V34.5H4.55078C4.55179 34.2473 4.6389 34.0026 4.79775 33.8061C4.9566 33.6096 5.17769 33.4732 5.42453 33.4192H5.42678ZM4.55078 36H6.80078C6.89891 35.9998 6.99604 35.9802 7.08653 35.9423C6.85149 36.1947 6.63611 36.4647 6.44228 36.75H4.55078V36ZM3.05078 38.25H5.69453C5.52034 38.7348 5.40306 39.2382 5.34503 39.75H3.05078V38.25ZM12.0508 43.5C11.4574 43.5 10.8774 43.3241 10.3841 42.9944C9.89072 42.6648 9.50621 42.1962 9.27914 41.6481C9.05208 41.0999 8.99267 40.4967 9.10843 39.9147C9.22418 39.3328 9.5099 38.7982 9.92946 38.3787C10.349 37.9591 10.8836 37.6734 11.4655 37.5576C12.0475 37.4419 12.6507 37.5013 13.1988 37.7284C13.747 37.9554 14.2155 38.3399 14.5452 38.8333C14.8748 39.3266 15.0508 39.9067 15.0508 40.5C15.0508 41.2957 14.7347 42.0587 14.1721 42.6213C13.6095 43.1839 12.8464 43.5 12.0508 43.5ZM12.0508 36C10.9884 36.002 9.96084 36.3794 9.14976 37.0656C8.33867 37.7518 7.79623 38.7026 7.61828 39.75H6.86078C7.04011 38.5014 7.66359 37.3592 8.61687 36.5331C9.57015 35.7069 10.7893 35.2521 12.0508 35.2521C13.3122 35.2521 14.5314 35.7069 15.4847 36.5331C16.438 37.3592 17.0615 38.5014 17.2408 39.75H16.4833C16.3053 38.7026 15.7629 37.7518 14.9518 37.0656C14.1407 36.3794 13.1132 36.002 12.0508 36ZM38.3008 43.5C37.7074 43.5 37.1274 43.3241 36.6341 42.9944C36.1407 42.6648 35.7562 42.1962 35.5291 41.6481C35.3021 41.0999 35.2427 40.4967 35.3584 39.9147C35.4742 39.3328 35.7599 38.7982 36.1795 38.3787C36.599 37.9591 37.1336 37.6734 37.7155 37.5576C38.2975 37.4419 38.9007 37.5013 39.4488 37.7284C39.997 37.9554 40.4655 38.3399 40.7952 38.8333C41.1248 39.3266 41.3008 39.9067 41.3008 40.5C41.3008 41.2957 40.9847 42.0587 40.4221 42.6213C39.8595 43.1839 39.0964 43.5 38.3008 43.5ZM38.3008 36C37.2384 36.002 36.2108 36.3794 35.3998 37.0656C34.5887 37.7518 34.0462 38.7026 33.8683 39.75H33.1108C33.2901 38.5014 33.9136 37.3592 34.8669 36.5331C35.8201 35.7069 37.0393 35.2521 38.3008 35.2521C39.5622 35.2521 40.7814 35.7069 41.7347 36.5331C42.688 37.3592 43.3115 38.5014 43.4908 39.75H42.7333C42.5553 38.7026 42.0129 37.7518 41.2018 37.0656C40.3907 36.3794 39.3632 36.002 38.3008 36ZM45.0508 39.75H45.0065C44.8881 38.6761 44.5116 37.6469 43.9093 36.75H45.0508C45.4486 36.75 45.8301 36.908 46.1114 37.1893C46.3927 37.4706 46.5508 37.8522 46.5508 38.25C46.5508 38.6478 46.3927 39.0294 46.1114 39.3107C45.8301 39.592 45.4486 39.75 45.0508 39.75Z" fill="#A7A7A7"/>
<path d="M12.0508 42C12.8792 42 13.5508 41.3284 13.5508 40.5C13.5508 39.6716 12.8792 39 12.0508 39C11.2224 39 10.5508 39.6716 10.5508 40.5C10.5508 41.3284 11.2224 42 12.0508 42Z" fill="#A7A7A7"/>
<path d="M38.3008 42C39.1292 42 39.8008 41.3284 39.8008 40.5C39.8008 39.6716 39.1292 39 38.3008 39C37.4724 39 36.8008 39.6716 36.8008 40.5C36.8008 41.3284 37.4724 42 38.3008 42Z" fill="#A7A7A7"/>
<path d="M28.5508 32.25H25.5508V33.75H28.5508V32.25Z" fill="#A7A7A7"/>
<path d="M15.0613 14.3738C15.0906 14.5487 15.1809 14.7077 15.3163 14.8223C15.4517 14.937 15.6234 14.9999 15.8008 15H16.5508V22.5C16.5508 23.0967 16.7878 23.669 17.2098 24.091C17.6317 24.5129 18.204 24.75 18.8008 24.75C19.3975 24.75 19.9698 24.5129 20.3918 24.091C20.8137 23.669 21.0508 23.0967 21.0508 22.5V21C21.0507 20.8011 20.9717 20.6104 20.831 20.4697L20.4635 20.1022L20.972 19.0853C21.0239 18.9811 21.0509 18.8663 21.0508 18.75V17.25C21.0507 17.0511 20.9717 16.8604 20.831 16.7197L20.6113 16.5L20.831 16.2803C20.9717 16.1396 21.0507 15.9489 21.0508 15.75V15H21.8008C21.9782 14.9999 22.1499 14.937 22.2853 14.8223C22.4206 14.7077 22.511 14.5487 22.5403 14.3738L23.2715 10.005C23.291 9.87088 23.3008 9.73553 23.3008 9.6C23.2998 8.84444 22.9992 8.12011 22.4649 7.58584C21.9307 7.05158 21.2063 6.75099 20.4508 6.75H19.6573C19.8231 6.10789 20.1969 5.53881 20.7205 5.13172C21.244 4.72464 21.8876 4.50249 22.5508 4.5H26.3008C26.9639 4.50249 27.6076 4.72464 28.1311 5.13172C28.6546 5.53881 29.0285 6.10789 29.1943 6.75H28.4443C27.4781 6.75198 26.552 7.1369 25.8691 7.82041C25.1861 8.50392 24.802 9.43027 24.8008 10.3965C24.8008 10.4835 24.8008 10.569 24.8098 10.6567L25.4458 19.557C25.4903 20.1518 25.7575 20.708 26.194 21.1145C26.6306 21.5209 27.2043 21.7479 27.8008 21.75H32.3008C32.8973 21.7479 33.471 21.5209 33.9075 21.1145C34.344 20.708 34.6112 20.1518 34.6558 19.557L35.2918 10.6552C35.2978 10.569 35.3008 10.4835 35.3008 10.3965C35.2996 9.42975 34.915 8.50294 34.2314 7.81935C33.5478 7.13576 32.621 6.75119 31.6543 6.75H30.7333C30.5553 5.70259 30.0129 4.7518 29.2018 4.0656C28.3907 3.3794 27.3632 3.00197 26.3008 3H22.5508C21.4884 3.00197 20.4608 3.3794 19.6498 4.0656C18.8387 4.7518 18.2962 5.70259 18.1183 6.75H17.1508C16.3952 6.75099 15.6709 7.05158 15.1366 7.58584C14.6024 8.12011 14.3018 8.84444 14.3008 9.6C14.301 9.74083 14.3116 9.88145 14.3323 10.0208L15.0613 14.3738ZM28.4473 8.25H29.3008V13.5H26.5168L26.306 10.551C26.3008 10.5 26.3008 10.4483 26.3008 10.3965C26.3014 9.8274 26.5277 9.28177 26.9301 8.87935C27.3326 8.47693 27.8782 8.2506 28.4473 8.25ZM26.624 15H33.4775L33.3703 16.5H26.7313L26.624 15ZM32.3008 20.25H27.8008C27.5833 20.2491 27.3742 20.1663 27.2151 20.0182C27.0559 19.87 26.9584 19.6673 26.942 19.4505L26.8385 18H33.263L33.1595 19.4505C33.1431 19.6673 33.0456 19.87 32.8865 20.0182C32.7273 20.1663 32.5182 20.2491 32.3008 20.25ZM33.8008 10.3965C33.8008 10.4483 33.8008 10.5 33.7955 10.5465L33.5848 13.5H30.8008V8.25H31.6543C32.2234 8.2506 32.769 8.47693 33.1714 8.87935C33.5738 9.28177 33.8002 9.8274 33.8008 10.3965ZM19.5508 15.4395L19.0205 15.9697C18.8799 16.1104 18.8009 16.3011 18.8009 16.5C18.8009 16.6989 18.8799 16.8896 19.0205 17.0303L19.5508 17.5605V18.573L18.8795 19.9147C18.8093 20.0556 18.7851 20.2149 18.8104 20.3703C18.8357 20.5256 18.9092 20.669 19.0205 20.7803L19.5508 21.3105V22.5C19.5508 22.6989 19.4718 22.8897 19.3311 23.0303C19.1905 23.171 18.9997 23.25 18.8008 23.25C18.6019 23.25 18.4111 23.171 18.2705 23.0303C18.1298 22.8897 18.0508 22.6989 18.0508 22.5V15H19.5508V15.4395ZM17.1508 8.25H20.4508C20.8088 8.25 21.1522 8.39223 21.4054 8.64541C21.6585 8.89858 21.8008 9.24196 21.8008 9.6C21.801 9.65794 21.7972 9.71582 21.7895 9.77325L21.1655 13.5H16.436L15.8143 9.79125C15.7869 9.59975 15.8009 9.40459 15.8555 9.219C15.9101 9.03341 16.004 8.86172 16.1307 8.71556C16.2575 8.5694 16.4141 8.45219 16.5901 8.37187C16.7661 8.29154 16.9573 8.24998 17.1508 8.25Z" fill="#A7A7A7"/>
</g>
<defs>
<clipPath id="clip0_96_14403">
<rect width="48" height="48" fill="white" transform="translate(0.800781)"/>
</clipPath>
</defs>
</svg>
