<svg width="49" height="48" viewBox="0 0 49 48" fill="none" xmlns="http://www.w3.org/2000/svg">
<path d="M45.6992 34.6065V32.25C45.6972 30.528 45.2016 28.8427 44.2711 27.3938C43.3406 25.9449 42.0143 24.7931 40.4492 24.075V6.75C40.4492 5.95435 40.1331 5.19129 39.5705 4.62868C39.0079 4.06607 38.2449 3.75 37.4492 3.75H11.9492C11.1536 3.75 10.3905 4.06607 9.8279 4.62868C9.26529 5.19129 8.94922 5.95435 8.94922 6.75V30.3585L5.00947 31.2C4.42695 31.3268 3.90519 31.6487 3.53053 32.1124C3.15587 32.5761 2.95079 33.1538 2.94922 33.75V36H2.19922C2.00031 36 1.80954 36.079 1.66889 36.2197C1.52824 36.3603 1.44922 36.5511 1.44922 36.75V39.75C1.44922 39.9489 1.52824 40.1397 1.66889 40.2803C1.80954 40.421 2.00031 40.5 2.19922 40.5H7.51672C7.69299 41.5481 8.23498 42.4999 9.04645 43.1863C9.85793 43.8727 10.8864 44.2493 11.9492 44.2493C13.0121 44.2493 14.0405 43.8727 14.852 43.1863C15.6635 42.4999 16.2054 41.5481 16.3817 40.5H33.7667C33.943 41.5481 34.485 42.4999 35.2965 43.1863C36.1079 43.8727 37.1364 44.2493 38.1992 44.2493C39.2621 44.2493 40.2905 43.8727 41.102 43.1863C41.9135 42.4999 42.4554 41.5481 42.6317 40.5H44.9492C45.6785 40.5009 46.383 40.2356 46.9305 39.754C47.478 39.2723 47.8309 38.6074 47.923 37.884C48.0151 37.1606 47.8399 36.4284 47.4305 35.825C47.021 35.2215 46.4054 34.7883 45.6992 34.6065ZM42.433 34.5C41.6482 33.8645 40.7305 33.4137 39.7479 33.181C38.7653 32.9483 37.7429 32.9397 36.7564 33.1558C35.77 33.3719 34.8449 33.8071 34.0495 34.4293C33.2541 35.0515 32.6089 35.8446 32.1617 36.75H17.9867C17.5238 35.8118 16.8484 34.9945 16.0142 34.3631C15.1801 33.7317 14.2101 33.3036 13.1814 33.1128C12.1528 32.922 11.0938 32.9738 10.0887 33.2641C9.08357 33.5544 8.16002 34.0752 7.39147 34.785C7.42949 34.6948 7.44912 34.5979 7.44922 34.5V32.2132L14.278 30.75H44.0492C44.1496 31.2437 44.1998 31.7462 44.1992 32.25V34.5H42.433ZM18.5252 38.25H31.6232C31.5658 38.4973 31.5225 38.7477 31.4935 39H18.655C18.626 38.7477 18.5827 38.4973 18.5252 38.25ZM28.4492 24.75H29.1992V29.25H16.2032C19.6238 26.3477 23.9632 24.7531 28.4492 24.75ZM35.9492 29.25H30.6992V24.75H35.9492V29.25ZM43.5685 29.25H37.4492V24.7882C38.7729 24.9237 40.0368 25.4081 41.112 26.192C42.1871 26.9759 43.0348 28.0312 43.5685 29.25ZM10.4492 6.75C10.4492 6.35218 10.6073 5.97064 10.8886 5.68934C11.1699 5.40804 11.5514 5.25 11.9492 5.25H37.4492C37.847 5.25 38.2286 5.40804 38.5099 5.68934C38.7912 5.97064 38.9492 6.35218 38.9492 6.75V23.55C38.215 23.3549 37.4589 23.254 36.6992 23.25H29.1992V18.75H35.1992V21.75H36.6992V18C36.6992 17.8011 36.6202 17.6103 36.4795 17.4697C36.3389 17.329 36.1481 17.25 35.9492 17.25H28.4492C28.2503 17.25 28.0595 17.329 27.9189 17.4697C27.7782 17.6103 27.6992 17.8011 27.6992 18V23.2673C24.5503 23.3806 21.4701 24.2202 18.6992 25.7205V25.5C18.6992 25.3011 18.6202 25.1103 18.4795 24.9697C18.3389 24.829 18.1481 24.75 17.9492 24.75H13.4492C13.2503 24.75 13.0595 24.829 12.9189 24.9697C12.7782 25.1103 12.6992 25.3011 12.6992 25.5V27.75H14.1992V26.25H17.1992V26.6205C16.3724 27.1631 15.5859 27.7647 14.8457 28.4205L13.849 29.3063L10.4492 30.0368V6.75ZM5.32372 32.6692L5.94922 32.535V33.75H4.44922C4.45026 33.4972 4.53749 33.2524 4.69648 33.0559C4.85548 32.8594 5.07674 32.723 5.32372 32.6692ZM4.44922 35.25H6.69922C6.79711 35.2499 6.89401 35.2303 6.98422 35.1922C6.74942 35.4447 6.53429 35.7147 6.34072 36H4.44922V35.25ZM2.94922 37.5H5.59297C5.41878 37.9848 5.30149 38.4882 5.24347 39H2.94922V37.5ZM11.9492 42.75C11.3559 42.75 10.7759 42.5741 10.2825 42.2444C9.78916 41.9148 9.40464 41.4462 9.17758 40.8981C8.95052 40.3499 8.89111 39.7467 9.00686 39.1647C9.12262 38.5828 9.40834 38.0482 9.8279 37.6287C10.2475 37.2091 10.782 36.9234 11.3639 36.8076C11.9459 36.6919 12.5491 36.7513 13.0973 36.9784C13.6454 37.2054 14.114 37.5899 14.4436 38.0833C14.7733 38.5766 14.9492 39.1567 14.9492 39.75C14.9492 40.5457 14.6331 41.3087 14.0705 41.8713C13.5079 42.4339 12.7449 42.75 11.9492 42.75ZM11.9492 35.25C10.8868 35.252 9.85928 35.6294 9.0482 36.3156C8.23711 37.0018 7.69467 37.9526 7.51672 39H6.75922C6.93854 37.7514 7.56202 36.6092 8.5153 35.7831C9.46859 34.9569 10.6878 34.5021 11.9492 34.5021C13.2107 34.5021 14.4299 34.9569 15.3831 35.7831C16.3364 36.6092 16.9599 37.7514 17.1392 39H16.3817C16.2038 37.9526 15.6613 37.0018 14.8502 36.3156C14.0392 35.6294 13.0116 35.252 11.9492 35.25ZM38.1992 42.75C37.6059 42.75 37.0259 42.5741 36.5325 42.2444C36.0392 41.9148 35.6546 41.4462 35.4276 40.8981C35.2005 40.3499 35.1411 39.7467 35.2569 39.1647C35.3726 38.5828 35.6583 38.0482 36.0779 37.6287C36.4975 37.2091 37.032 36.9234 37.6139 36.8076C38.1959 36.6919 38.7991 36.7513 39.3473 36.9784C39.8954 37.2054 40.364 37.5899 40.6936 38.0833C41.0233 38.5766 41.1992 39.1567 41.1992 39.75C41.1992 40.5457 40.8831 41.3087 40.3205 41.8713C39.7579 42.4339 38.9949 42.75 38.1992 42.75ZM38.1992 35.25C37.1368 35.252 36.1093 35.6294 35.2982 36.3156C34.4871 37.0018 33.9447 37.9526 33.7667 39H33.0092C33.1885 37.7514 33.812 36.6092 34.7653 35.7831C35.7186 34.9569 36.9378 34.5021 38.1992 34.5021C39.4607 34.5021 40.6799 34.9569 41.6331 35.7831C42.5864 36.6092 43.2099 37.7514 43.3892 39H42.6317C42.4538 37.9526 41.9113 37.0018 41.1002 36.3156C40.2892 35.6294 39.2616 35.252 38.1992 35.25ZM44.9492 39H44.905C44.7865 37.9261 44.4101 36.8969 43.8077 36H44.9492C45.347 36 45.7286 36.158 46.0099 36.4393C46.2912 36.7206 46.4492 37.1022 46.4492 37.5C46.4492 37.8978 46.2912 38.2794 46.0099 38.5607C45.7286 38.842 45.347 39 44.9492 39Z" fill="#A7A7A7"/>
<path d="M11.9492 41.25C12.7776 41.25 13.4492 40.5784 13.4492 39.75C13.4492 38.9216 12.7776 38.25 11.9492 38.25C11.1208 38.25 10.4492 38.9216 10.4492 39.75C10.4492 40.5784 11.1208 41.25 11.9492 41.25Z" fill="#A7A7A7"/>
<path d="M38.1992 41.25C39.0276 41.25 39.6992 40.5784 39.6992 39.75C39.6992 38.9216 39.0276 38.25 38.1992 38.25C37.3708 38.25 36.6992 38.9216 36.6992 39.75C36.6992 40.5784 37.3708 41.25 38.1992 41.25Z" fill="#A7A7A7"/>
<path d="M28.4492 31.5H25.4492V33H28.4492V31.5Z" fill="#A7A7A7"/>
<path d="M36.6992 15.75C36.8981 15.75 37.0889 15.671 37.2295 15.5303C37.3702 15.3897 37.4492 15.1989 37.4492 15V7.5C37.4492 7.30109 37.3702 7.11032 37.2295 6.96967C37.0889 6.82902 36.8981 6.75 36.6992 6.75H12.6992C12.5003 6.75 12.3095 6.82902 12.1689 6.96967C12.0282 7.11032 11.9492 7.30109 11.9492 7.5V15C11.9492 15.1989 12.0282 15.3897 12.1689 15.5303C12.3095 15.671 12.5003 15.75 12.6992 15.75H36.6992ZM13.4492 8.25H35.9492V14.25H13.4492V8.25Z" fill="#A7A7A7"/>
<path d="M17.9492 17.25H13.4492C13.2503 17.25 13.0595 17.329 12.9189 17.4697C12.7782 17.6103 12.6992 17.8011 12.6992 18V22.5C12.6992 22.6989 12.7782 22.8897 12.9189 23.0303C13.0595 23.171 13.2503 23.25 13.4492 23.25H17.9492C18.1481 23.25 18.3389 23.171 18.4795 23.0303C18.6202 22.8897 18.6992 22.6989 18.6992 22.5V18C18.6992 17.8011 18.6202 17.6103 18.4795 17.4697C18.3389 17.329 18.1481 17.25 17.9492 17.25ZM17.1992 21.75H14.1992V18.75H17.1992V21.75Z" fill="#A7A7A7"/>
<path d="M25.4492 17.25H20.9492C20.7503 17.25 20.5595 17.329 20.4189 17.4697C20.2782 17.6103 20.1992 17.8011 20.1992 18V22.5C20.1992 22.6989 20.2782 22.8897 20.4189 23.0303C20.5595 23.171 20.7503 23.25 20.9492 23.25H25.4492C25.6481 23.25 25.8389 23.171 25.9795 23.0303C26.1202 22.8897 26.1992 22.6989 26.1992 22.5V18C26.1992 17.8011 26.1202 17.6103 25.9795 17.4697C25.8389 17.329 25.6481 17.25 25.4492 17.25ZM24.6992 21.75H21.6992V18.75H24.6992V21.75Z" fill="#A7A7A7"/>
</svg>
