<svg width="49" height="48" viewBox="0 0 49 48" fill="none" xmlns="http://www.w3.org/2000/svg">
<path d="M14.6518 18.75H12.8008C12.204 18.75 11.6317 18.9871 11.2098 19.409C10.7878 19.831 10.5508 20.4033 10.5508 21C10.5508 21.5967 10.7878 22.169 11.2098 22.591C11.6317 23.0129 12.204 23.25 12.8008 23.25H13.01C12.8737 23.7384 12.8034 24.2429 12.8008 24.75V28.5C12.8005 29.2986 13.0641 30.0748 13.5508 30.708V33C13.5508 33.5967 13.7878 34.169 14.2098 34.591C14.6317 35.0129 15.204 35.25 15.8008 35.25H17.3008C17.8975 35.25 18.4698 35.0129 18.8918 34.591C19.3137 34.169 19.5508 33.5967 19.5508 33V32.76C20.8563 32.919 22.1701 32.9992 23.4853 33H26.1155C27.4309 32.9992 28.7451 32.9191 30.0508 32.76V33C30.0508 33.5967 30.2878 34.169 30.7098 34.591C31.1317 35.0129 31.704 35.25 32.3008 35.25H33.8008C34.3975 35.25 34.9698 35.0129 35.3918 34.591C35.8137 34.169 36.0508 33.5967 36.0508 33V30.708C36.5374 30.0748 36.8011 29.2986 36.8008 28.5V24.75C36.7982 24.2429 36.7278 23.7384 36.5915 23.25H36.8008C37.3975 23.25 37.9698 23.0129 38.3918 22.591C38.8137 22.169 39.0508 21.5967 39.0508 21C39.0508 20.4033 38.8137 19.831 38.3918 19.409C37.9698 18.9871 37.3975 18.75 36.8008 18.75H34.9498C34.47 17.2292 33.5186 15.9006 32.2333 14.9567C30.9479 14.0128 29.3955 13.5026 27.8008 13.5H21.8008C20.2061 13.5026 18.6536 14.0128 17.3683 14.9567C16.083 15.9006 15.1315 17.2292 14.6518 18.75ZM26.3068 21.6923C26.3186 21.1518 26.5252 20.6339 26.8887 20.2338C27.2522 19.8337 27.748 19.5784 28.2848 19.5149C28.8216 19.4514 29.3633 19.5841 29.8101 19.8884C30.2568 20.1927 30.5786 20.6482 30.716 21.171C29.2604 21.4483 27.787 21.6225 26.3068 21.6923ZM33.833 21.9847L34.2305 21.8715L34.595 22.4183C34.9412 22.9368 35.1672 23.5262 35.2565 24.1433L33.1483 24.5647C32.6646 24.6611 32.234 24.9339 31.9402 25.3301C31.6465 25.7263 31.5107 26.2176 31.5591 26.7084C31.6076 27.1993 31.8369 27.6545 32.2024 27.9857C32.5679 28.3168 33.0436 28.5001 33.5368 28.5H35.3008C35.3013 28.9756 35.1426 29.4377 34.8499 29.8126C34.5573 30.1875 34.1475 30.4536 33.686 30.5685C31.7567 31.0481 29.786 31.3426 27.8008 31.4482V29.7982C28.3385 29.7292 28.874 29.6482 29.405 29.5425L29.9533 29.4315C30.4344 29.3329 30.8619 29.0595 31.1532 28.6641C31.4445 28.2687 31.5791 27.7794 31.5308 27.2907C31.4825 26.8019 31.2548 26.3484 30.8917 26.0177C30.5286 25.687 30.0559 25.5026 29.5648 25.5H20.0398C19.5466 25.4995 19.0709 25.6825 18.7052 26.0133C18.3395 26.3442 18.11 26.7993 18.0614 27.2901C18.0127 27.7808 18.1484 28.2721 18.442 28.6684C18.7356 29.0646 19.1661 29.3374 19.6498 29.4337L20.2003 29.5448C20.7313 29.6505 21.2668 29.7315 21.8038 29.8005V31.4505C19.8185 31.3449 17.8479 31.0503 15.9185 30.5708C15.4561 30.4563 15.0454 30.1901 14.7521 29.8147C14.4588 29.4393 14.2999 28.9764 14.3008 28.5H16.0648C16.5579 28.5003 17.0335 28.3172 17.399 27.9863C17.7646 27.6554 17.9939 27.2003 18.0425 26.7096C18.091 26.2189 17.9553 25.7276 17.6617 25.3315C17.3681 24.9353 16.9376 24.6626 16.454 24.5663L14.345 24.144C14.434 23.5268 14.66 22.9374 15.0065 22.419L15.371 21.8723L15.7678 21.9855C18.7053 22.825 21.7456 23.2506 24.8008 23.25C27.8557 23.2504 30.8958 22.8246 33.833 21.9847ZM35.3008 25.665V27H33.5368C33.4158 27.0005 33.299 26.9559 33.2091 26.8749C33.1193 26.7939 33.0629 26.6822 33.051 26.5618C33.0391 26.4414 33.0725 26.3209 33.1447 26.2239C33.2169 26.1268 33.3228 26.0602 33.4415 26.037L35.3008 25.665ZM20.492 28.074L19.9415 27.963C19.8228 27.9398 19.7169 27.8732 19.6447 27.7761C19.5725 27.6791 19.5391 27.5586 19.551 27.4382C19.5629 27.3178 19.6193 27.2061 19.7091 27.1251C19.799 27.0441 19.9158 26.9995 20.0368 27H29.5618C29.6827 26.9996 29.7994 27.0444 29.8891 27.1255C29.9788 27.2066 30.0351 27.3182 30.0469 27.4385C30.0587 27.5589 30.0252 27.6793 29.953 27.7763C29.8808 27.8733 29.775 27.9398 29.6563 27.963L29.1073 28.074C26.2633 28.6391 23.336 28.6391 20.492 28.074ZM16.16 26.037C16.2788 26.0602 16.3846 26.1268 16.4568 26.2239C16.5291 26.3209 16.5625 26.4414 16.5506 26.5618C16.5387 26.6822 16.4823 26.7939 16.3925 26.8749C16.3026 26.9559 16.1858 27.0005 16.0648 27H14.3008V25.665L16.16 26.037ZM12.8008 21.75C12.6019 21.75 12.4111 21.671 12.2705 21.5303C12.1298 21.3897 12.0508 21.1989 12.0508 21C12.0508 20.8011 12.1298 20.6103 12.2705 20.4697C12.4111 20.329 12.6019 20.25 12.8008 20.25H14.3458C14.3285 20.4218 14.3098 20.5928 14.3045 20.7675L13.7585 21.5858C13.7233 21.639 13.6985 21.6967 13.6655 21.75H12.8008ZM18.0508 33C18.0508 33.1989 17.9718 33.3897 17.8311 33.5303C17.6905 33.671 17.4997 33.75 17.3008 33.75H15.8008C15.6019 33.75 15.4111 33.671 15.2705 33.5303C15.1298 33.3897 15.0508 33.1989 15.0508 33V31.8518C15.2134 31.9209 15.3808 31.9781 15.5518 32.0227C16.3768 32.229 17.2123 32.391 18.0508 32.5327V33ZM23.4853 31.5C23.4238 31.5 23.3623 31.4948 23.3008 31.494V29.946C23.801 29.9783 24.3013 30 24.8008 30C25.3003 30 25.8005 29.9783 26.3008 29.946V31.494C26.2393 31.494 26.1778 31.5 26.1155 31.5H23.4853ZM33.8008 33.75H32.3008C32.1019 33.75 31.9111 33.671 31.7705 33.5303C31.6298 33.3897 31.5508 33.1989 31.5508 33V32.5327C32.3893 32.391 33.224 32.229 34.0498 32.0227C34.2207 31.9781 34.3882 31.9209 34.5508 31.8518V33C34.5508 33.1989 34.4718 33.3897 34.3311 33.5303C34.1905 33.671 33.9997 33.75 33.8008 33.75ZM36.8008 20.25C36.9997 20.25 37.1905 20.329 37.3311 20.4697C37.4718 20.6103 37.5508 20.8011 37.5508 21C37.5508 21.1989 37.4718 21.3897 37.3311 21.5303C37.1905 21.671 36.9997 21.75 36.8008 21.75H35.9353C35.9023 21.6967 35.8775 21.6383 35.843 21.5858L35.3008 20.7675C35.2955 20.5928 35.2768 20.4218 35.2595 20.25H36.8008ZM33.7723 20.442L33.4213 20.5425C33.011 20.6602 32.5963 20.7503 32.1793 20.8508C31.9623 19.9609 31.4266 19.1815 30.6735 18.6601C29.9205 18.1388 29.0024 17.9117 28.0931 18.0218C27.1838 18.132 26.3465 18.5718 25.7398 19.2579C25.133 19.944 24.7989 20.8288 24.8008 21.7448C21.884 21.7474 18.9811 21.3435 16.1758 20.5447L15.8255 20.445C15.9652 18.9565 16.6549 17.5737 17.7599 16.5667C18.8649 15.5598 20.3058 15.0011 21.8008 15H27.8008C29.2947 15.002 30.7342 15.5606 31.8383 16.5669C32.9425 17.5731 33.632 18.9547 33.7723 20.442Z" fill="#FDB515"/>
<path d="M44.3008 9.74986H44.0105C40.4538 9.75406 36.9399 8.9739 33.7191 7.46495C30.4983 5.956 27.6499 3.75539 25.3768 1.01986C25.3034 0.93939 25.214 0.875189 25.1143 0.831401C25.0146 0.787612 24.9068 0.765207 24.7979 0.765631C24.689 0.766055 24.5814 0.789298 24.4821 0.833862C24.3827 0.878426 24.2938 0.943321 24.221 1.02436C21.948 3.75874 19.1 5.95832 15.8799 7.46647C12.6598 8.97463 9.14681 9.75426 5.59103 9.74986H5.30078C5.10187 9.74986 4.9111 9.82888 4.77045 9.96953C4.6298 10.1102 4.55078 10.3009 4.55078 10.4999V18.1079C4.57638 24.4024 6.49584 30.5435 10.0594 35.7322C13.623 40.9208 18.6658 44.9169 24.5315 47.2004C24.705 47.2664 24.8966 47.2664 25.07 47.2004C30.9358 44.9169 35.9785 40.9208 39.5421 35.7322C43.1057 30.5435 45.0252 24.4024 45.0508 18.1079V10.4999C45.0508 10.3009 44.9718 10.1102 44.8311 9.96953C44.6905 9.82888 44.4997 9.74986 44.3008 9.74986ZM43.5508 18.1079C43.5264 24.0502 41.729 29.8501 38.3887 34.7648C35.0483 39.6795 30.3171 43.4854 24.8008 45.6951C19.2845 43.4854 14.5532 39.6795 11.2129 34.7648C7.87255 29.8501 6.07512 24.0502 6.05078 18.1079V11.2499C9.60096 11.1902 13.1002 10.395 16.3275 8.91449C19.5548 7.43395 22.4399 5.30023 24.8008 2.64811C27.1614 5.30051 30.0465 7.43443 33.2739 8.91499C36.5012 10.3956 40.0005 11.1906 43.5508 11.2499V18.1079Z" fill="#FDB515"/>
</svg>
