<svg width="49" height="48" viewBox="0 0 49 48" fill="none" xmlns="http://www.w3.org/2000/svg">
<g clip-path="url(#clip0_96_14361)">
<path d="M23.4002 17.9998C23.5991 17.9998 23.7899 17.9208 23.9305 17.7801L31.4305 10.2801C31.5711 10.1394 31.6501 9.94871 31.6501 9.74984C31.6501 9.55097 31.5711 9.36024 31.4305 9.21959L29.9305 7.71959C29.7898 7.57899 29.5991 7.5 29.4002 7.5C29.2014 7.5 29.0106 7.57899 28.87 7.71959L23.4002 13.1893L21.6805 11.4696C21.5398 11.329 21.3491 11.25 21.1502 11.25C20.9514 11.25 20.7606 11.329 20.62 11.4696L19.12 12.9696C18.9794 13.1102 18.9004 13.301 18.9004 13.4998C18.9004 13.6987 18.9794 13.8894 19.12 14.0301L22.87 17.7801C23.0106 17.9208 23.2013 17.9998 23.4002 17.9998ZM21.1502 13.0603L22.87 14.7801C23.0106 14.9207 23.2014 14.9997 23.4002 14.9997C23.5991 14.9997 23.7898 14.9207 23.9305 14.7801L29.4002 9.31034L29.8397 9.74984L23.4002 16.1893L20.7107 13.4998L21.1502 13.0603Z" fill="#FDB515"/>
<path d="M34.6211 30H15.1211V31.5H34.6211V30Z" fill="#FDB515"/>
<path d="M34.6211 33H15.1211V34.5H34.6211V33Z" fill="#FDB515"/>
<path d="M45.9004 20.2502H42.9004C42.7015 20.2502 42.5107 20.3293 42.3701 20.4699C42.2294 20.6106 42.1504 20.8013 42.1504 21.0002V21.7502H41.2504C40.9582 19.7469 40.0782 17.8753 38.7217 16.3724C37.3653 14.8695 35.5934 13.8028 33.6304 13.3075C33.8054 12.4578 33.8958 11.5928 33.9004 10.7252V6.00024C33.9004 5.80132 33.8214 5.61056 33.6807 5.46991C33.5401 5.32925 33.3493 5.25024 33.1504 5.25024C31.6586 5.25182 30.1896 4.88429 28.8743 4.18039C27.559 3.47649 26.4383 2.45809 25.6121 1.21599L25.5244 1.08399C25.4518 0.986977 25.3576 0.908223 25.2493 0.853976C25.141 0.799729 25.0215 0.771484 24.9004 0.771484C24.7792 0.771484 24.6598 0.799729 24.5515 0.853976C24.4431 0.908223 24.349 0.986977 24.2764 1.08399L24.1886 1.21599C23.3624 2.45809 22.2418 3.47649 20.9265 4.18039C19.6112 4.88429 18.1422 5.25182 16.6504 5.25024C16.4515 5.25024 16.2607 5.32925 16.1201 5.46991C15.9794 5.61056 15.9004 5.80132 15.9004 6.00024V10.7252C15.9036 11.589 15.9918 12.4504 16.1636 13.297C14.188 13.7817 12.402 14.8452 11.0344 16.3512C9.66688 17.8572 8.78 19.7371 8.48739 21.7502H7.65039V21.0002C7.65039 20.8013 7.57137 20.6106 7.43072 20.4699C7.29007 20.3293 7.0993 20.2502 6.90039 20.2502H3.90039C3.30365 20.2502 2.73136 20.4873 2.3094 20.9092C1.88744 21.3312 1.65039 21.9035 1.65039 22.5002C1.65039 23.097 1.88744 23.6693 2.3094 24.0912C2.73136 24.5132 3.30365 24.7502 3.90039 24.7502H6.55914L6.43164 24.8777C5.27604 26.0401 4.62548 27.6112 4.62114 29.2502V37.5002C4.62175 38.2767 4.83088 39.0387 5.22668 39.7067C5.62248 40.3746 6.19041 40.924 6.87114 41.2975V45.0002C6.87114 45.597 7.10819 46.1693 7.53015 46.5912C7.95211 47.0132 8.5244 47.2502 9.12114 47.2502H12.1211C12.7179 47.2502 13.2902 47.0132 13.7121 46.5912C14.1341 46.1693 14.3711 45.597 14.3711 45.0002V42.559C15.9154 42.6775 17.4634 42.7502 19.0084 42.7502H30.7354C32.2796 42.7502 33.8276 42.6752 35.3711 42.559V45.0002C35.3711 45.597 35.6082 46.1693 36.0302 46.5912C36.4521 47.0132 37.0244 47.2502 37.6211 47.2502H40.6211C41.2179 47.2502 41.7902 47.0132 42.2121 46.5912C42.6341 46.1693 42.8711 45.597 42.8711 45.0002V41.2982C43.5519 40.9246 44.1198 40.3751 44.5156 39.707C44.9114 39.0389 45.1205 38.2768 45.1211 37.5002V29.2502C45.1236 28.4378 44.9648 27.633 44.6539 26.8824C44.343 26.1318 43.8861 25.4504 43.3099 24.8777L43.1824 24.7502H45.9004C46.4971 24.7502 47.0694 24.5132 47.4914 24.0912C47.9133 23.6693 48.1504 23.097 48.1504 22.5002C48.1504 21.9035 47.9133 21.3312 47.4914 20.9092C47.0694 20.4873 46.4971 20.2502 45.9004 20.2502ZM17.4004 6.72399C18.8554 6.62221 20.2733 6.21926 21.5644 5.54067C22.8555 4.86209 23.9915 3.92268 24.9004 2.78199C25.8093 3.92268 26.9453 4.86209 28.2364 5.54067C29.5274 6.21926 30.9454 6.62221 32.4004 6.72399V10.7252C32.3944 13.0954 31.676 15.409 30.3386 17.3657C29.0012 19.3225 27.1065 20.8321 24.9004 21.6985C22.6943 20.8321 20.7996 19.3225 19.4622 17.3657C18.1248 15.409 17.4064 13.0954 17.4004 10.7252V6.72399ZM16.5304 14.749C17.1491 16.6835 18.2018 18.4511 19.6079 19.9166C21.0141 21.3822 22.7366 22.507 24.6439 23.2052C24.8096 23.2655 24.9912 23.2655 25.1569 23.2052C27.0619 22.5077 28.7827 21.3846 30.1879 19.9213C31.5932 18.4581 32.6459 16.6934 33.2659 14.7617C35.0607 15.2145 36.6652 16.2259 37.8478 17.6498C39.0304 19.0737 39.73 20.8366 39.8456 22.684L39.4099 22.8032C29.8896 25.387 19.8527 25.387 10.3324 22.8032L9.90039 22.684C10.0147 20.8271 10.7198 19.0554 11.9126 17.6277C13.1054 16.2 14.7234 15.191 16.5304 14.7482V14.749ZM6.15039 23.2502H3.90039C3.70148 23.2502 3.51071 23.1712 3.37006 23.0306C3.22941 22.8899 3.15039 22.6991 3.15039 22.5002C3.15039 22.3013 3.22941 22.1106 3.37006 21.9699C3.51071 21.8293 3.70148 21.7502 3.90039 21.7502H6.15039V23.2502ZM7.65039 23.2502H8.05989L7.65039 23.6597V23.2502ZM12.8696 45.0002C12.8696 45.1991 12.7906 45.3899 12.65 45.5306C12.5093 45.6712 12.3186 45.7502 12.1196 45.7502H9.11964C8.92073 45.7502 8.72996 45.6712 8.58931 45.5306C8.44866 45.3899 8.36964 45.1991 8.36964 45.0002V41.8037C9.85764 42.0692 11.3599 42.2717 12.8696 42.4255V45.0002ZM20.0179 41.2502L20.9254 38.2502H28.8146L29.7244 41.2502H20.0179ZM40.6196 45.7502H37.6196C37.4207 45.7502 37.23 45.6712 37.0893 45.5306C36.9487 45.3899 36.8696 45.1991 36.8696 45.0002V42.4255C38.3779 42.2755 39.8801 42.07 41.3696 41.8037V45.0002C41.3696 45.1991 41.2906 45.3899 41.15 45.5306C41.0093 45.6712 40.8186 45.7502 40.6196 45.7502ZM43.6196 29.2502V29.2885C43.4962 29.2632 43.3706 29.2504 43.2446 29.2502H38.3696C37.7729 29.2502 37.2006 29.4873 36.7787 29.9092C36.3567 30.3312 36.1196 30.9035 36.1196 31.5002V32.6252C36.1196 33.3214 36.3962 33.9891 36.8885 34.4814C37.3808 34.9737 38.0484 35.2502 38.7446 35.2502C40.533 35.2441 42.2608 34.6024 43.6196 33.4397V37.5002C43.62 38.1664 43.3863 38.8115 42.9594 39.323C42.5326 39.8344 41.9396 40.1797 41.2841 40.2985C37.9843 40.8946 34.6397 41.2087 31.2866 41.2375L30.0866 37.2827C30.04 37.1287 29.945 36.9938 29.8157 36.8979C29.6865 36.802 29.5298 36.7502 29.3689 36.7502H20.3689C20.208 36.7502 20.0513 36.802 19.922 36.8979C19.7928 36.9938 19.6978 37.1287 19.6511 37.2827L18.4511 41.2375C15.098 41.2087 11.7535 40.8946 8.45364 40.2985C7.79871 40.179 7.20647 39.8335 6.78021 39.3221C6.35395 38.8107 6.1207 38.166 6.12114 37.5002V33.4397C7.47981 34.6026 9.20778 35.2444 10.9961 35.2502C11.6923 35.2502 12.36 34.9737 12.8523 34.4814C13.3446 33.9891 13.6211 33.3214 13.6211 32.6252V31.5002C13.6211 30.9035 13.3841 30.3312 12.9621 29.9092C12.5402 29.4873 11.9679 29.2502 11.3711 29.2502H6.49614C6.37017 29.2504 6.24454 29.2632 6.12114 29.2885V29.2502C6.12392 28.0087 6.61662 26.8185 7.49214 25.9382L9.34389 24.088L9.93864 24.25C14.8051 25.5776 19.8269 26.2503 24.8711 26.2502C29.9154 26.2503 34.9372 25.5776 39.8036 24.25L40.3984 24.088L42.2494 25.9382C43.1251 26.8184 43.6181 28.0086 43.6211 29.2502H43.6196ZM43.6196 31.1252C43.6196 31.2064 43.5933 31.2853 43.5446 31.3502C42.9842 32.0937 42.2591 32.6973 41.4263 33.1136C40.5936 33.53 39.6757 33.7479 38.7446 33.7502C38.4463 33.7502 38.1601 33.6317 37.9491 33.4207C37.7382 33.2098 37.6196 32.9236 37.6196 32.6252V31.5002C37.6196 31.3013 37.6987 31.1106 37.8393 30.9699C37.98 30.8293 38.1707 30.7502 38.3696 30.7502H43.2446C43.294 30.75 43.3429 30.7596 43.3886 30.7783C43.4343 30.7971 43.4758 30.8247 43.5108 30.8595C43.5458 30.8944 43.5735 30.9358 43.5925 30.9814C43.6114 31.027 43.6211 31.0759 43.6211 31.1252H43.6196ZM6.11964 31.1252C6.11964 31.0258 6.15915 30.9304 6.22948 30.8601C6.2998 30.7897 6.39518 30.7502 6.49464 30.7502H11.3696C11.5686 30.7502 11.7593 30.8293 11.9 30.9699C12.0406 31.1106 12.1196 31.3013 12.1196 31.5002V32.6252C12.1196 32.9236 12.0011 33.2098 11.7901 33.4207C11.5792 33.6317 11.293 33.7502 10.9946 33.7502C10.0635 33.7481 9.14561 33.5303 8.31282 33.1139C7.48002 32.6975 6.75501 32.0938 6.19464 31.3502C6.14649 31.2851 6.12071 31.2062 6.12114 31.1252H6.11964ZM41.6824 23.2502H42.1504V23.7182L41.6824 23.2502ZM45.9004 23.2502H43.6504V21.7502H45.9004C46.0993 21.7502 46.2901 21.8293 46.4307 21.9699C46.5714 22.1106 46.6504 22.3013 46.6504 22.5002C46.6504 22.6991 46.5714 22.8899 46.4307 23.0306C46.2901 23.1712 46.0993 23.2502 45.9004 23.2502Z" fill="#FDB515"/>
</g>
<defs>
<clipPath id="clip0_96_14361">
<rect width="48" height="48" fill="white" transform="translate(0.900391)"/>
</clipPath>
</defs>
</svg>
