<svg width="49" height="48" viewBox="0 0 49 48" fill="none" xmlns="http://www.w3.org/2000/svg">
<path d="M38.8496 30H36.8299C36.7247 29.7016 36.6041 29.409 36.4684 29.1233L37.8934 27.6982C38.034 27.5576 38.1129 27.3669 38.1129 27.168C38.1129 26.9691 38.034 26.7784 37.8934 26.6377L34.7111 23.4555C34.5705 23.3149 34.3797 23.2359 34.1809 23.2359C33.982 23.2359 33.7913 23.3149 33.6506 23.4555L32.2256 24.8805C31.9401 24.7451 31.6477 24.6247 31.3496 24.5198V22.5C31.3496 22.3011 31.2706 22.1103 31.1299 21.9697C30.9893 21.829 30.7985 21.75 30.5996 21.75H26.0996C25.9007 21.75 25.7099 21.829 25.5693 21.9697C25.4286 22.1103 25.3496 22.3011 25.3496 22.5V24.5198C25.0924 24.6105 24.8449 24.717 24.5996 24.8287V24C24.5996 23.8011 24.5206 23.6103 24.3799 23.4697C24.2393 23.329 24.0485 23.25 23.8496 23.25H20.8496C19.2549 23.2526 17.7025 23.7628 16.4171 24.7067C15.1318 25.6506 14.1804 26.9792 13.7006 28.5H11.8496C11.2529 28.5 10.6806 28.7371 10.2586 29.159C9.83666 29.581 9.59961 30.1533 9.59961 30.75C9.59961 31.3467 9.83666 31.919 10.2586 32.341C10.6806 32.7629 11.2529 33 11.8496 33H12.0589C11.9229 33.4885 11.8526 33.9929 11.8496 34.5V38.25C11.8493 39.0486 12.113 39.8248 12.5996 40.458V42.75C12.5996 43.3467 12.8367 43.919 13.2586 44.341C13.6806 44.7629 14.2529 45 14.8496 45H16.3496C16.9463 45 17.5186 44.7629 17.9406 44.341C18.3626 43.919 18.5996 43.3467 18.5996 42.75V42.51C19.9051 42.669 21.219 42.7492 22.5341 42.75H23.8496C24.0485 42.75 24.2393 42.671 24.3799 42.5303C24.5206 42.3897 24.5996 42.1989 24.5996 42V41.175C24.8449 41.2868 25.0924 41.3932 25.3496 41.484V43.5C25.3496 43.6989 25.4286 43.8897 25.5693 44.0303C25.7099 44.171 25.9007 44.25 26.0996 44.25H30.5996C30.7985 44.25 30.9893 44.171 31.1299 44.0303C31.2706 43.8897 31.3496 43.6989 31.3496 43.5V41.4802C31.648 41.3751 31.9406 41.2544 32.2264 41.1188L33.6514 42.5437C33.792 42.6844 33.9827 42.7633 34.1816 42.7633C34.3805 42.7633 34.5712 42.6844 34.7119 42.5437L37.8941 39.3615C38.0347 39.2209 38.1137 39.0301 38.1137 38.8313C38.1137 38.6324 38.0347 38.4416 37.8941 38.301L36.4691 36.876C36.6045 36.5905 36.7249 36.2981 36.8299 36H38.8496C39.0485 36 39.2393 35.921 39.3799 35.7803C39.5206 35.6397 39.5996 35.4489 39.5996 35.25V30.75C39.5996 30.5511 39.5206 30.3603 39.3799 30.2197C39.2393 30.079 39.0485 30 38.8496 30ZM23.0996 38.2312C21.9045 38.1922 20.7146 38.056 19.5416 37.824L18.9904 37.713C18.8716 37.6898 18.7658 37.6232 18.6935 37.5261C18.6213 37.4291 18.5879 37.3086 18.5998 37.1882C18.6117 37.0678 18.6681 36.9561 18.7579 36.8751C18.8478 36.7941 18.9646 36.7495 19.0856 36.75H23.0996V38.2312ZM24.5996 29.3363C25.3283 28.5884 26.2634 28.0748 27.2855 27.8611C28.3076 27.6474 29.3701 27.7434 30.3374 28.1367C31.3046 28.53 32.1326 29.2028 32.7156 30.0691C33.2985 30.9354 33.6099 31.9558 33.6099 33C33.6099 34.0442 33.2985 35.0646 32.7156 35.9309C32.1326 36.7972 31.3046 37.47 30.3374 37.8633C29.3701 38.2566 28.3076 38.3526 27.2855 38.1389C26.2634 37.9252 25.3283 37.4116 24.5996 36.6637V29.3363ZM20.8496 24.75H23.0996V31.4738C20.4364 31.4157 17.7913 31.0187 15.2284 30.2925L14.8781 30.192C15.0184 28.7047 15.7079 27.3231 16.8121 26.3169C17.9162 25.3106 19.3557 24.752 20.8496 24.75ZM11.8496 31.5C11.6507 31.5 11.4599 31.421 11.3193 31.2803C11.1786 31.1397 11.0996 30.9489 11.0996 30.75C11.0996 30.5511 11.1786 30.3603 11.3193 30.2197C11.4599 30.079 11.6507 30 11.8496 30H13.3946C13.3774 30.1718 13.3586 30.3427 13.3534 30.5175L12.8074 31.3357C12.7721 31.3882 12.7481 31.4467 12.7151 31.5H11.8496ZM13.3496 35.415L15.2089 35.79C15.3246 35.816 15.4268 35.8835 15.4962 35.9797C15.5656 36.0759 15.5975 36.1941 15.5858 36.3121C15.574 36.4302 15.5196 36.5398 15.4326 36.6205C15.3456 36.7011 15.2322 36.7472 15.1136 36.75H13.3496V35.415ZM17.0996 42.75C17.0996 42.9489 17.0206 43.1397 16.8799 43.2803C16.7393 43.421 16.5485 43.5 16.3496 43.5H14.8496C14.6507 43.5 14.4599 43.421 14.3193 43.2803C14.1786 43.1397 14.0996 42.9489 14.0996 42.75V41.6018C14.2622 41.6709 14.4297 41.7281 14.6006 41.7727C15.4256 41.979 16.2611 42.141 17.0996 42.2827V42.75ZM22.5341 41.25C19.9821 41.2494 17.4397 40.9366 14.9636 40.3185C14.5023 40.2033 14.0928 39.9371 13.8003 39.5623C13.5078 39.1874 13.3492 38.7255 13.3496 38.25H15.1136C15.6067 38.2503 16.0823 38.0672 16.4478 37.7363C16.8134 37.4054 17.0428 36.9503 17.0913 36.4596C17.1399 35.9689 17.0041 35.4776 16.7105 35.0815C16.4169 34.6853 15.9865 34.4126 15.5029 34.3163L13.3939 33.894C13.4832 33.2769 13.7092 32.6876 14.0554 32.169L14.4199 31.6222L14.8166 31.7355C17.5134 32.5001 20.2971 32.9163 23.0996 32.9738V35.25H19.0856C18.5924 35.2495 18.1167 35.4325 17.751 35.7633C17.3854 36.0942 17.1558 36.5493 17.1072 37.0401C17.0585 37.5308 17.1942 38.0221 17.4878 38.4184C17.7814 38.8146 18.2119 39.0874 18.6956 39.1838L19.2461 39.2948C20.5164 39.5461 21.8053 39.6921 23.0996 39.7312V41.25H22.5341ZM38.0996 34.5H36.2809C36.1176 34.5 35.9587 34.5534 35.8285 34.6519C35.6983 34.7505 35.6038 34.8889 35.5594 35.046C35.4017 35.6057 35.1792 36.1452 34.8964 36.6532C34.8158 36.7962 34.7843 36.9617 34.8068 37.1242C34.8293 37.2868 34.9045 37.4375 35.0209 37.5532L36.3041 38.8372L34.1831 40.9583L32.8991 39.675C32.7834 39.5586 32.6327 39.4834 32.4701 39.461C32.3075 39.4385 32.1421 39.4699 31.9991 39.5505C31.491 39.8334 30.9516 40.0559 30.3919 40.2135C30.2347 40.2579 30.0964 40.3524 29.9978 40.4826C29.8993 40.6129 29.8459 40.7717 29.8459 40.935V42.75H26.8496V40.9313C26.8496 40.7679 26.7962 40.6091 26.6977 40.4789C26.5991 40.3487 26.4608 40.2542 26.3036 40.2097C25.7439 40.0521 25.2045 39.8296 24.6964 39.5467C24.6651 39.5327 24.6327 39.5212 24.5996 39.5122V38.601C25.6153 39.2842 26.7977 39.6782 28.0202 39.7411C29.2426 39.8039 30.4592 39.5332 31.5396 38.9578C32.62 38.3824 33.5237 37.524 34.1538 36.4746C34.7839 35.4251 35.1167 34.2241 35.1167 33C35.1167 31.7759 34.7839 30.5749 34.1538 29.5254C33.5237 28.476 32.62 27.6176 31.5396 27.0422C30.4592 26.4668 29.2426 26.1961 28.0202 26.2589C26.7977 26.3218 25.6153 26.7158 24.5996 27.399V26.4885C24.6326 26.479 24.665 26.4672 24.6964 26.4532C25.2045 26.1704 25.7439 25.9479 26.3036 25.7903C26.4608 25.7458 26.5991 25.6513 26.6977 25.5211C26.7962 25.3909 26.8496 25.2321 26.8496 25.0687V23.25H29.8496V25.0687C29.8497 25.2321 29.903 25.3909 30.0016 25.5211C30.1001 25.6513 30.2385 25.7458 30.3956 25.7903C30.9554 25.9479 31.4948 26.1704 32.0029 26.4532C32.1458 26.5338 32.3113 26.5653 32.4739 26.5428C32.6364 26.5203 32.7871 26.4451 32.9029 26.3287L34.1869 25.0455L36.3079 27.1665L35.0246 28.4505C34.9082 28.5662 34.8331 28.7169 34.8106 28.8795C34.7881 29.0421 34.8195 29.2075 34.9001 29.3505C35.183 29.8586 35.4055 30.398 35.5631 30.9578C35.6075 31.1149 35.702 31.2533 35.8323 31.3518C35.9625 31.4504 36.1213 31.5037 36.2846 31.5038H38.0996V34.5Z" fill="#FDB515"/>
<path d="M47.0996 7.50003H31.4666C30.8845 6.16279 29.9245 5.02462 28.7047 4.22523C27.4848 3.42583 26.0581 3 24.5996 3C23.1411 3 21.7144 3.42583 20.4946 4.22523C19.2747 5.02462 18.3148 6.16279 17.7326 7.50003H2.09961C1.9007 7.50003 1.70993 7.57905 1.56928 7.7197C1.42863 7.86035 1.34961 8.05112 1.34961 8.25003V44.25C1.34961 44.4489 1.42863 44.6397 1.56928 44.7804C1.70993 44.921 1.9007 45 2.09961 45H5.09961C5.29852 45 5.48929 44.921 5.62994 44.7804C5.77059 44.6397 5.84961 44.4489 5.84961 44.25V19.5H43.3496V44.25C43.3496 44.4489 43.4286 44.6397 43.5693 44.7804C43.7099 44.921 43.9007 45 44.0996 45H47.0996C47.2985 45 47.4893 44.921 47.6299 44.7804C47.7706 44.6397 47.8496 44.4489 47.8496 44.25V8.25003C47.8496 8.05112 47.7706 7.86035 47.6299 7.7197C47.4893 7.57905 47.2985 7.50003 47.0996 7.50003ZM2.84961 9.00003H18.2419C18.3969 9.0001 18.5482 8.9521 18.6748 8.86265C18.8015 8.7732 18.8973 8.64669 18.9491 8.50053C19.3612 7.33101 20.126 6.31817 21.1381 5.60171C22.1502 4.88526 23.3596 4.50049 24.5996 4.50049C25.8396 4.50049 27.0491 4.88526 28.0611 5.60171C29.0732 6.31817 29.838 7.33101 30.2501 8.50053C30.3019 8.64669 30.3977 8.7732 30.5244 8.86265C30.651 8.9521 30.8023 9.0001 30.9574 9.00003H46.3496V18H27.5996V15.5543C28.3934 15.0034 29.0196 14.244 29.4089 13.3597C29.7982 12.4754 29.9356 11.5007 29.8059 10.5432C29.6761 9.58578 29.2843 8.68281 28.6737 7.93402C28.0631 7.18523 27.2574 6.61975 26.3456 6.30003C26.2323 6.26068 26.1112 6.24909 25.9924 6.26623C25.8737 6.28337 25.7608 6.32875 25.6632 6.39855C25.5657 6.46834 25.4863 6.56053 25.4317 6.66737C25.3771 6.7742 25.349 6.89257 25.3496 7.01253V10.7865L24.5996 11.1615L23.8496 10.7865V7.01253C23.8502 6.89257 23.8221 6.7742 23.7675 6.66737C23.713 6.56053 23.6336 6.46834 23.536 6.39855C23.4384 6.32875 23.3255 6.28337 23.2068 6.26623C23.0881 6.24909 22.9669 6.26068 22.8536 6.30003C21.9418 6.61975 21.1362 7.18523 20.5255 7.93402C19.9149 8.68281 19.5231 9.58578 19.3934 10.5432C19.2636 11.5007 19.401 12.4754 19.7903 13.3597C20.1797 14.244 20.8058 15.0034 21.5996 15.5543V18H2.84961V9.00003ZM22.7246 14.493C22.1885 14.1827 21.7375 13.7444 21.4121 13.2173C21.0867 12.6902 20.897 12.0906 20.8598 11.4723C20.8227 10.8539 20.9393 10.236 21.1993 9.6737C21.4592 9.11141 21.8545 8.62229 22.3496 8.25003V11.25C22.3495 11.3894 22.3883 11.526 22.4616 11.6446C22.5348 11.7632 22.6397 11.859 22.7644 11.9213L24.2644 12.6713C24.3685 12.7233 24.4832 12.7504 24.5996 12.7504C24.716 12.7504 24.8308 12.7233 24.9349 12.6713L26.4349 11.9213C26.5595 11.859 26.6644 11.7632 26.7376 11.6446C26.8109 11.526 26.8497 11.3894 26.8496 11.25V8.25003C27.3449 8.62226 27.7403 9.11143 28.0004 9.67379C28.2604 10.2362 28.3771 10.8542 28.34 11.4727C28.3028 12.0912 28.113 12.6908 27.7875 13.218C27.462 13.7452 27.0109 14.1835 26.4746 14.4938C26.3606 14.5596 26.2659 14.6543 26.2001 14.7683C26.1343 14.8823 26.0996 15.0116 26.0996 15.1433V18H23.0996V15.1425C23.0996 15.0109 23.0649 14.8816 22.9991 14.7675C22.9333 14.6535 22.8386 14.5589 22.7246 14.493ZM4.34961 43.5H2.84961V19.5H4.34961V43.5ZM44.8496 43.5V19.5H46.3496V43.5H44.8496Z" fill="#FDB515"/>
</svg>
