<svg width="49" height="48" viewBox="0 0 49 48" fill="none" xmlns="http://www.w3.org/2000/svg">
<g clip-path="url(#clip0_96_14391)">
<path d="M39.1504 35.3566V32.2501C39.1475 31.2316 38.7932 30.2452 38.1475 29.4575C37.5018 28.6698 36.6041 28.129 35.6059 27.9264L23.8174 25.5684C21.1813 22.2614 17.8317 19.5931 14.0191 17.763C10.2065 15.9329 6.02947 14.9884 1.80039 15.0001H1.65039V16.5001H1.80039C5.84927 16.4889 9.84714 17.4032 13.4886 19.1734C17.13 20.9436 20.3187 23.5226 22.8109 26.7136C22.9214 26.8539 23.0783 26.9502 23.2534 26.9851L33.1504 28.9651V30.0001C33.1504 30.9947 33.5455 31.9485 34.2487 32.6518C34.952 33.355 35.9058 33.7501 36.9004 33.7501H37.6504V35.2501H33.8531C32.8961 33.7491 31.5458 32.5391 29.9491 31.7518C28.3524 30.9645 26.5705 30.63 24.797 30.7846C23.0235 30.9393 21.3263 31.5771 19.89 32.6289C18.4537 33.6807 17.3332 35.1061 16.6504 36.7501H1.65039V38.2501H16.1726C16.0555 38.7432 15.9773 39.2448 15.9386 39.7501H1.65039V41.2501H18.9446C19.134 42.8958 19.922 44.4145 21.1585 45.5169C22.395 46.6193 23.9938 47.2285 25.6504 47.2285C27.307 47.2285 28.9057 46.6193 30.1423 45.5169C31.3788 44.4145 32.1668 42.8958 32.3561 41.2501H38.4004C39.1296 41.251 39.8341 40.9857 40.3817 40.5041C40.9292 40.0224 41.2821 39.3575 41.3742 38.6341C41.4662 37.9107 41.2911 37.1785 40.8817 36.5751C40.4722 35.9716 39.8566 35.5384 39.1504 35.3566ZM36.9004 32.2501C36.3037 32.2501 35.7314 32.0131 35.3094 31.5911C34.8874 31.1691 34.6504 30.5968 34.6504 30.0001V29.2651L35.3111 29.3971C35.97 29.5305 36.5626 29.8872 36.9888 30.407C37.415 30.9269 37.6487 31.5779 37.6504 32.2501H36.9004ZM25.6504 32.2501C27.7074 32.2528 29.6893 33.0232 31.2082 34.4104C32.727 35.7976 33.6734 37.7018 33.8621 39.7501H32.3561C32.1668 38.1044 31.3788 36.5857 30.1423 35.4833C28.9057 34.3809 27.307 33.7717 25.6504 33.7717C23.9938 33.7717 22.395 34.3809 21.1585 35.4833C19.922 36.5857 19.134 38.1044 18.9446 39.7501H17.4386C17.6273 37.7018 18.5738 35.7976 20.0926 34.4104C21.6115 33.0232 23.5934 32.2528 25.6504 32.2501ZM25.6504 45.7501C24.612 45.7501 23.597 45.4422 22.7336 44.8653C21.8703 44.2884 21.1974 43.4685 20.8 42.5092C20.4027 41.5499 20.2987 40.4943 20.5013 39.4759C20.7038 38.4575 21.2039 37.522 21.9381 36.7878C22.6723 36.0536 23.6078 35.5536 24.6262 35.351C25.6446 35.1484 26.7002 35.2524 27.6595 35.6497C28.6188 36.0471 29.4387 36.72 30.0156 37.5834C30.5925 38.4467 30.9004 39.4618 30.9004 40.5001C30.8988 41.892 30.3452 43.2264 29.3609 44.2107C28.3767 45.1949 27.0423 45.7485 25.6504 45.7501ZM38.4004 39.7501H35.3621C35.2868 38.7185 35.0465 37.7056 34.6504 36.7501H38.4004C38.7982 36.7501 39.1797 36.9081 39.4611 37.1894C39.7424 37.4708 39.9004 37.8523 39.9004 38.2501C39.9004 38.6479 39.7424 39.0295 39.4611 39.3108C39.1797 39.5921 38.7982 39.7501 38.4004 39.7501Z" fill="#FDB515"/>
<path d="M20.3254 26.5748C20.3867 26.4475 20.4107 26.3055 20.3948 26.1651C20.3789 26.0247 20.3236 25.8917 20.2354 25.7813C18.2979 23.3479 15.8353 21.384 13.0318 20.0365C10.2283 18.689 7.15641 17.9929 4.04589 18.0001H3.90039C3.70148 18.0001 3.51071 18.0791 3.37006 18.2197C3.22941 18.3604 3.15039 18.5511 3.15039 18.7501V26.2501C3.15039 26.449 3.22941 26.6397 3.37006 26.7804C3.51071 26.921 3.70148 27.0001 3.90039 27.0001H19.6504C19.7915 26.9999 19.9297 26.9598 20.0491 26.8846C20.1685 26.8094 20.2643 26.702 20.3254 26.5748ZM4.65039 25.5001V19.5091C7.16078 19.5815 9.6323 20.1479 11.9237 21.1758C14.2151 22.2038 16.2816 23.6732 18.0049 25.5001H4.65039Z" fill="#FDB515"/>
<path d="M6.90039 28.5H3.90039V30H6.90039V28.5Z" fill="#FDB515"/>
<path d="M25.6504 37.5C25.057 37.5 24.477 37.6759 23.9837 38.0056C23.4903 38.3352 23.1058 38.8038 22.8788 39.3519C22.6517 39.9001 22.5923 40.5033 22.708 41.0853C22.8238 41.6672 23.1095 42.2018 23.5291 42.6213C23.9486 43.0409 24.4832 43.3266 25.0651 43.4424C25.6471 43.5581 26.2503 43.4987 26.7984 43.2716C27.3466 43.0446 27.8152 42.6601 28.1448 42.1667C28.4744 41.6734 28.6504 41.0933 28.6504 40.5C28.6504 39.7044 28.3343 38.9413 27.7717 38.3787C27.2091 37.8161 26.446 37.5 25.6504 37.5ZM25.6504 42C25.3537 42 25.0637 41.912 24.817 41.7472C24.5704 41.5824 24.3781 41.3481 24.2646 41.074C24.151 40.7999 24.1213 40.4983 24.1792 40.2074C24.2371 39.9164 24.38 39.6491 24.5897 39.4393C24.7995 39.2296 25.0668 39.0867 25.3578 39.0288C25.6487 38.9709 25.9503 39.0006 26.2244 39.1142C26.4985 39.2277 26.7328 39.42 26.8976 39.6666C27.0624 39.9133 27.1504 40.2033 27.1504 40.5C27.1504 40.8978 26.9924 41.2794 26.7111 41.5607C26.4297 41.842 26.0482 42 25.6504 42Z" fill="#FDB515"/>
<path d="M44.4004 29.9167C44.4013 29.4449 44.3762 28.9735 44.3254 28.5044L43.8154 23.9174C43.7481 23.3255 43.5021 22.768 43.11 22.3194C42.718 21.8708 42.1985 21.5523 41.6209 21.4064L41.0674 21.2677L41.8924 19.8862C42.4321 18.9841 43.1528 18.2035 44.0089 17.5934L47.2144 15.3037C47.5994 15.0288 47.8872 14.6387 48.0363 14.1896C48.1853 13.7406 48.1878 13.2558 48.0434 12.8052C47.8991 12.3547 47.6153 11.9616 47.2331 11.6827C46.8509 11.4039 46.39 11.2536 45.9169 11.2537H45.9109C45.2429 11.2555 44.5966 11.4903 44.0831 11.9174L41.2091 14.3084C40.4645 14.9284 39.8132 15.6526 39.2756 16.4587L37.5341 19.0724L36.1174 17.6564L36.3326 17.6024C37.4792 17.3166 38.4776 16.6129 39.1324 15.6292L40.8394 13.0687C41.2057 12.5201 41.401 11.8751 41.4004 11.2154C41.4004 10.7399 41.2475 10.2769 40.9642 9.89498C40.6809 9.51305 40.2821 9.23242 39.827 9.09458C39.3719 8.95675 38.8845 8.96902 38.4368 9.12958C37.9892 9.29014 37.6051 9.59048 37.3414 9.98618L35.6081 12.5857C35.3174 13.0209 34.8706 13.3278 34.3601 13.4429C34.6331 12.8023 34.7225 12.0983 34.6183 11.4098C34.5142 10.7213 34.2206 10.0752 33.7704 9.54398C33.3202 9.01271 32.7311 8.61712 32.0689 8.40143C31.4068 8.18574 30.6977 8.15845 30.021 8.3226C29.3442 8.48676 28.7265 8.83589 28.2368 9.33098C27.7471 9.82607 27.4047 10.4476 27.2479 11.1261C27.0911 11.8046 27.1262 12.5133 27.3491 13.1731C27.572 13.8328 27.974 14.4175 28.5101 14.8619L25.0091 17.0474L23.6471 15.6862C23.4307 15.4679 23.173 15.2949 22.8891 15.1771C22.6052 15.0593 22.3007 14.9991 21.9934 14.9999C21.5348 14.9999 21.0864 15.1345 20.7037 15.3871C20.321 15.6397 20.0209 15.9991 19.8407 16.4207C19.6605 16.8423 19.6081 17.3076 19.69 17.7587C19.7719 18.2099 19.9845 18.627 20.3014 18.9584L22.2416 21.4724C22.4886 21.7908 22.8048 22.0489 23.1663 22.2269C23.5278 22.4049 23.9251 22.4983 24.3281 22.4999C24.8484 22.4997 25.357 22.3454 25.7899 22.0567L29.1334 19.8284C30.1565 21.562 31.6156 22.9976 33.3655 23.9926C35.1155 24.9876 37.0953 25.5072 39.1084 25.4999H39.2291L39.7489 30.1747C39.8191 30.7638 40.1112 31.304 40.5656 31.6854C41.02 32.0668 41.6026 32.2608 42.1949 32.228C42.7873 32.1951 43.3449 31.9378 43.7543 31.5085C44.1637 31.0791 44.3942 30.5099 44.3989 29.9167H44.4004ZM30.9004 9.74993C31.3454 9.74993 31.7804 9.88189 32.1504 10.1291C32.5204 10.3764 32.8088 10.7278 32.9791 11.1389C33.1494 11.55 33.1939 12.0024 33.1071 12.4389C33.0203 12.8753 32.806 13.2763 32.4913 13.5909C32.1767 13.9056 31.7758 14.1199 31.3393 14.2067C30.9028 14.2935 30.4504 14.249 30.0393 14.0787C29.6282 13.9084 29.2768 13.62 29.0295 13.25C28.7823 12.88 28.6504 12.4449 28.6504 11.9999C28.6504 11.4032 28.8874 10.8309 29.3094 10.4089C29.7313 9.98698 30.3036 9.74993 30.9004 9.74993ZM42.0671 30.7499C41.8626 30.7493 41.6654 30.6735 41.5133 30.5368C41.3611 30.4001 41.2646 30.2122 41.2421 30.0089L40.6489 24.6674C40.6285 24.4834 40.5408 24.3134 40.4026 24.1902C40.2644 24.0669 40.0855 23.9992 39.9004 23.9999H39.1084C37.2313 24.0054 35.3903 23.4851 33.7938 22.4979C32.1974 21.5108 30.9092 20.0963 30.0754 18.4147C30.0278 18.3195 29.9606 18.2354 29.878 18.1682C29.7955 18.101 29.6997 18.0521 29.5968 18.0248C29.4939 17.9975 29.3864 17.9924 29.2814 18.0098C29.1764 18.0272 29.0764 18.0668 28.9879 18.1259L24.9634 20.8087C24.7765 20.933 24.5571 20.9995 24.3326 20.9999C24.1588 20.9991 23.9875 20.9587 23.8316 20.8819C23.6756 20.8052 23.5392 20.6939 23.4326 20.5567L21.4661 18.0067C21.4464 17.9804 21.4251 17.9554 21.4024 17.9317C21.2863 17.8142 21.2073 17.6652 21.1754 17.5031C21.1435 17.3411 21.16 17.1733 21.2229 17.0205C21.2857 16.8678 21.3922 16.737 21.529 16.6444C21.6657 16.5518 21.8267 16.5016 21.9919 16.4999C22.1022 16.4997 22.2115 16.5213 22.3135 16.5635C22.4154 16.6057 22.508 16.6677 22.5859 16.7459L24.3694 18.5302C24.4893 18.6501 24.6463 18.7258 24.8148 18.745C24.9833 18.7643 25.1533 18.7258 25.2971 18.6359L30.0724 15.6509C30.5979 15.7763 31.1448 15.7829 31.6732 15.6703C32.2017 15.5577 32.6983 15.3287 33.1271 14.9999H33.9004C34.4853 15.0006 35.0613 14.8565 35.577 14.5805C36.0927 14.3045 36.5321 13.9052 36.8561 13.4182L38.5894 10.8187C38.6745 10.6908 38.7985 10.5938 38.9431 10.5419C39.0877 10.49 39.2451 10.486 39.3921 10.5305C39.5391 10.575 39.6679 10.6656 39.7594 10.789C39.851 10.9123 39.9004 11.0618 39.9004 11.2154C39.9005 11.5787 39.793 11.934 39.5914 12.2362L37.8844 14.7974C37.4361 15.4705 36.7527 15.9519 35.9681 16.1474L34.4681 16.5224C34.3394 16.5547 34.2216 16.6205 34.1266 16.7132C34.0317 16.8059 33.963 16.922 33.9277 17.0499C33.8923 17.1778 33.8914 17.3127 33.9253 17.441C33.9591 17.5693 34.0263 17.6864 34.1201 17.7802L37.1201 20.7802C37.1985 20.8586 37.2934 20.9187 37.3979 20.9561C37.5023 20.9935 37.6138 21.0072 37.7242 20.9963C37.8346 20.9854 37.9412 20.9501 38.0364 20.893C38.1315 20.8359 38.2128 20.7585 38.2744 20.6662L40.5244 17.2912C40.9817 16.6052 41.5356 15.9888 42.1691 15.4612L45.0439 13.0702C45.2887 12.8665 45.5969 12.7546 45.9154 12.7537C46.0116 12.7536 46.1069 12.7725 46.1959 12.8093C46.2848 12.846 46.3656 12.9 46.4337 12.9681C46.5018 13.0361 46.5557 13.117 46.5925 13.2059C46.6293 13.2948 46.6482 13.3902 46.6481 13.4864C46.6484 13.6036 46.6207 13.7192 46.5674 13.8236C46.514 13.9279 46.4365 14.018 46.3414 14.0864L43.1359 16.3762C42.1122 17.1054 41.2504 18.0385 40.6046 19.1167L39.2546 21.3667C39.1943 21.4672 39.1583 21.5804 39.1496 21.6973C39.141 21.8142 39.1598 21.9315 39.2047 22.0398C39.2495 22.148 39.3191 22.2443 39.4079 22.3208C39.4967 22.3974 39.6021 22.452 39.7159 22.4804L41.2511 22.8644C41.5322 22.9352 41.785 23.09 41.9758 23.3081C42.1666 23.5263 42.2864 23.7974 42.3191 24.0854L42.8284 28.6732C42.8751 29.086 42.8992 29.5012 42.9004 29.9167C42.9 30.1376 42.812 30.3493 42.6559 30.5054C42.4997 30.6616 42.288 30.7495 42.0671 30.7499Z" fill="#FDB515"/>
<path d="M9.46474 11.8605L14.7147 15.6105L15.5862 14.3895L12.2412 12H16.6505C16.808 12 16.9615 11.9505 17.0892 11.8584C17.217 11.7663 17.3125 11.6364 17.3622 11.487L18.2892 8.70445L19.7292 11.5852L21.0717 10.9147L18.8217 6.4147C18.7546 6.28245 18.6502 6.17272 18.5215 6.09903C18.3928 6.02534 18.2453 5.9909 18.0972 5.99995C17.9492 6.01048 17.8076 6.06471 17.6904 6.15576C17.5731 6.24681 17.4856 6.3706 17.4387 6.51145L16.1097 10.5H9.90049C9.74155 10.4999 9.58672 10.5504 9.45832 10.6441C9.32993 10.7378 9.23461 10.8698 9.18613 11.0212C9.13765 11.1726 9.13851 11.3354 9.18859 11.4862C9.23866 11.6371 9.33537 11.7681 9.46474 11.8605Z" fill="#FDB515"/>
<path d="M24.1504 3.63836L25.8146 5.71886C25.9218 5.85289 26.0717 5.94611 26.2393 5.98296C26.4069 6.01982 26.5821 5.99807 26.7356 5.92136L31.1164 3.73061L30.1886 6.51311L31.6136 6.98711L33.1136 2.48711C33.1612 2.346 33.1656 2.19394 33.1264 2.0503C33.0872 1.90666 33.0061 1.77794 32.8935 1.68053C32.7809 1.58312 32.6418 1.52144 32.4941 1.50333C32.3463 1.48522 32.1964 1.51152 32.0636 1.57886L26.6074 4.30811L23.9824 1.03136C23.8849 0.911426 23.7528 0.824534 23.604 0.78257C23.4553 0.740606 23.2972 0.74562 23.1514 0.796924C23.0056 0.848229 22.8792 0.943319 22.7896 1.06919C22.6999 1.19506 22.6513 1.34556 22.6504 1.50011V7.50011H24.1504V3.63836Z" fill="#FDB515"/>
<path d="M44.0374 33.8573L43.2656 35.1436L47.0156 37.3936L47.7874 36.1074L44.0374 33.8573Z" fill="#FDB515"/>
<path d="M43.622 36.5445L42.1797 36.9565L43.6796 42.2065L45.1219 41.7944L43.622 36.5445Z" fill="#FDB515"/>
</g>
<defs>
<clipPath id="clip0_96_14391">
<rect width="48" height="48" fill="white" transform="translate(0.900391)"/>
</clipPath>
</defs>
</svg>
