<svg width="49" height="48" viewBox="0 0 49 48" fill="none" xmlns="http://www.w3.org/2000/svg">
<path d="M47.1992 21.75C47.3981 21.75 47.5889 21.671 47.7295 21.5303C47.8702 21.3897 47.9492 21.1989 47.9492 21V10.5C47.9492 10.3011 47.8702 10.1103 47.7295 9.96967C47.5889 9.82902 47.3981 9.75 47.1992 9.75H2.19922C2.00031 9.75 1.80954 9.82902 1.66889 9.96967C1.52824 10.1103 1.44922 10.3011 1.44922 10.5V21C1.44922 21.1989 1.52824 21.3897 1.66889 21.5303C1.80954 21.671 2.00031 21.75 2.19922 21.75H2.94922V36.75H1.44922V38.25H47.9492V36.75H46.4492V21.75H47.1992ZM2.94922 11.25H46.4492V20.25H2.94922V11.25ZM29.9492 36V35.25H31.4492V36C31.4492 36.1989 31.3702 36.3897 31.2295 36.5303C31.0889 36.671 30.8981 36.75 30.6992 36.75C30.5003 36.75 30.3095 36.671 30.1689 36.5303C30.0282 36.3897 29.9492 36.1989 29.9492 36ZM29.1992 33.75V32.25H39.6992V33.75H29.1992ZM30.064 30.75L30.5995 27H38.299L38.8345 30.75H30.064ZM32.9492 36V35.25H35.9492V36C35.9517 36.2561 35.9984 36.5098 36.0872 36.75H32.8112C32.9 36.5098 32.9467 36.2561 32.9492 36ZM37.4492 36V35.25H38.9492V36C38.9492 36.1989 38.8702 36.3897 38.7295 36.5303C38.5889 36.671 38.3981 36.75 38.1992 36.75C38.0003 36.75 37.8095 36.671 37.6689 36.5303C37.5282 36.3897 37.4492 36.1989 37.4492 36ZM40.4492 36V35.25C40.6481 35.25 40.8389 35.171 40.9795 35.0303C41.1202 34.8897 41.1992 34.6989 41.1992 34.5V31.5C41.1992 31.3011 41.1202 31.1103 40.9795 30.9697C40.8389 30.829 40.6481 30.75 40.4492 30.75H40.3495L39.6917 26.145C39.6664 25.9661 39.5774 25.8023 39.441 25.6838C39.3045 25.5653 39.1299 25.5 38.9492 25.5H29.9492C29.7687 25.5 29.5943 25.565 29.4579 25.6832C29.3215 25.8014 29.2323 25.9649 29.2067 26.1435L28.549 30.75H28.4492C28.2503 30.75 28.0595 30.829 27.9189 30.9697C27.7782 31.1103 27.6992 31.3011 27.6992 31.5V34.5C27.6992 34.6989 27.7782 34.8897 27.9189 35.0303C28.0595 35.171 28.2503 35.25 28.4492 35.25V36C28.4517 36.2561 28.4984 36.5098 28.5872 36.75H26.9492V21.75H41.9492V36.75H40.3112C40.4 36.5098 40.4467 36.2561 40.4492 36ZM10.4492 36V35.25H11.9492V36C11.9492 36.1989 11.8702 36.3897 11.7295 36.5303C11.5889 36.671 11.3981 36.75 11.1992 36.75C11.0003 36.75 10.8095 36.671 10.6689 36.5303C10.5282 36.3897 10.4492 36.1989 10.4492 36ZM12.5927 33.75C12.435 33.1438 12.0908 32.6025 11.6087 32.2025C11.1267 31.8026 10.5311 31.5642 9.90622 31.521C9.96601 31.3022 10.0392 31.0873 10.1252 30.8775L10.3345 30.93C13.364 31.69 16.5344 31.69 19.564 30.93L19.7725 30.8783C19.8586 31.0878 19.9318 31.3024 19.9915 31.521C19.3667 31.5643 18.7713 31.8028 18.2894 32.2027C17.8075 32.6027 17.4634 33.1439 17.3057 33.75H12.5927ZM10.9907 33.75H10.4492C10.2503 33.75 10.0595 33.671 9.91889 33.5303C9.77824 33.3897 9.69922 33.1989 9.69922 33C9.96135 33.0008 10.2187 33.0705 10.4454 33.2021C10.672 33.3338 10.8601 33.5227 10.9907 33.75ZM20.1992 33C20.1992 33.1989 20.1202 33.3897 19.9795 33.5303C19.8389 33.671 19.6481 33.75 19.4492 33.75H18.9077C19.0383 33.5227 19.2264 33.3338 19.4531 33.2021C19.6798 33.0705 19.9371 33.0008 20.1992 33ZM19.1995 29.475C16.4086 30.1702 13.4898 30.1702 10.699 29.475L10.5295 29.4323C10.6513 28.9498 10.9311 28.522 11.3244 28.2171C11.7176 27.9122 12.2016 27.7478 12.6992 27.75H17.1992C17.6959 27.7521 18.1779 27.9185 18.5701 28.2232C18.9623 28.5279 19.2426 28.9538 19.3675 29.4345L19.1995 29.475ZM13.4492 36V35.25H16.4492V36C16.4517 36.2561 16.4984 36.5098 16.5872 36.75H13.3112C13.4 36.5098 13.4467 36.2561 13.4492 36ZM17.9492 36V35.25H19.4492V36C19.4492 36.1989 19.3702 36.3897 19.2295 36.5303C19.0889 36.671 18.8981 36.75 18.6992 36.75C18.5003 36.75 18.3095 36.671 18.1689 36.5303C18.0282 36.3897 17.9492 36.1989 17.9492 36ZM20.9492 36V34.665C21.1842 34.4558 21.3725 34.1993 21.5017 33.9124C21.6309 33.6256 21.6982 33.3146 21.6992 33C21.6982 31.8977 21.4415 30.8107 20.9492 29.8245L20.9447 29.814C20.8959 28.8532 20.4801 27.9478 19.7832 27.2846C19.0862 26.6214 18.1613 26.2511 17.1992 26.25H12.6992C11.7373 26.2503 10.8124 26.6203 10.1155 27.2833C9.41872 27.9464 9.00331 28.8518 8.95522 29.8125L8.94922 29.8223C8.4568 30.8092 8.20007 31.897 8.19922 33C8.20021 33.3146 8.26751 33.6256 8.39674 33.9124C8.52597 34.1993 8.71422 34.4558 8.94922 34.665V36C8.9517 36.2561 8.99839 36.5098 9.08722 36.75H7.44922V21.75H22.4492V36.75H20.8112C20.9 36.5098 20.9467 36.2561 20.9492 36ZM23.9492 21.75H25.4492V36.75H23.9492V21.75ZM4.44922 21.75H5.94922V36.75H4.44922V21.75ZM44.9492 36.75H43.4492V21.75H44.9492V36.75Z" fill="#FDB515"/>
<path d="M35.0592 16.2186L32.9487 15.8661V15.6156L35.0487 15.1964C35.1598 15.174 35.2643 15.1267 35.3545 15.0581C35.4447 14.9896 35.5182 14.9014 35.5694 14.8004C35.6206 14.6994 35.6483 14.588 35.6504 14.4748C35.6524 14.3615 35.6288 14.2492 35.5812 14.1464C35.3063 13.5619 34.8848 13.0585 34.3576 12.6853C33.8304 12.3121 33.2156 12.0817 32.573 12.0166C31.9303 11.9515 31.2818 12.0539 30.6905 12.3138C30.0992 12.5738 29.5853 12.9824 29.1987 13.4999H20.1987C19.8122 12.984 19.299 12.5767 18.7087 12.3176C18.1185 12.0584 17.4713 11.9562 16.83 12.0208C16.1886 12.0854 15.5748 12.3146 15.0481 12.6862C14.5214 13.0579 14.0996 13.5593 13.8237 14.1419C13.7762 14.2447 13.7525 14.357 13.7546 14.4703C13.7566 14.5835 13.7843 14.6949 13.8356 14.7959C13.8868 14.8969 13.9603 14.9851 14.0505 15.0536C14.1406 15.1222 14.2452 15.1695 14.3562 15.1919L16.4562 15.6111V15.8616L14.3457 16.2141C14.2334 16.2328 14.1268 16.2768 14.0341 16.3428C13.9413 16.4088 13.8648 16.495 13.8103 16.595C13.7558 16.6949 13.7247 16.806 13.7195 16.9197C13.7143 17.0334 13.7351 17.1469 13.7802 17.2514C14.042 17.8505 14.4561 18.3706 14.9815 18.7597C15.5069 19.1488 16.1251 19.3935 16.7745 19.4692C17.4239 19.5449 18.0818 19.4491 18.6826 19.1913C19.2834 18.9335 19.8062 18.5227 20.1987 17.9999H29.1987C29.5908 18.5241 30.1136 18.9362 30.7149 19.1951C31.3161 19.4539 31.9748 19.5504 32.6251 19.475C33.2753 19.3995 33.8944 19.1547 34.4204 18.765C34.9464 18.3754 35.3609 17.8545 35.6225 17.2544C35.6676 17.1499 35.6884 17.0364 35.6832 16.9227C35.678 16.809 35.647 16.6979 35.5925 16.598C35.538 16.498 35.4614 16.4118 35.3687 16.3458C35.2759 16.2798 35.1693 16.2358 35.057 16.2171L35.0592 16.2186ZM32.1987 17.9999C31.8044 17.9992 31.4172 17.8949 31.0759 17.6975C30.7346 17.5 30.4511 17.2164 30.254 16.8749C30.1881 16.7608 30.0933 16.666 29.9792 16.6002C29.865 16.5343 29.7355 16.4998 29.6037 16.4999H19.7937C19.662 16.4998 19.5325 16.5343 19.4183 16.6002C19.3042 16.666 19.2094 16.7608 19.1435 16.8749C18.9813 17.1565 18.7599 17.3996 18.4945 17.5873C18.2291 17.7749 17.9262 17.9027 17.6066 17.9618C17.287 18.0208 16.9583 18.0098 16.6434 17.9293C16.3285 17.8489 16.0349 17.701 15.7827 17.4959L17.3225 17.2386C17.4973 17.2094 17.6562 17.1191 17.7708 16.9839C17.8855 16.8486 17.9485 16.6772 17.9487 16.4999V14.9999C17.9489 14.8269 17.8893 14.6591 17.78 14.525C17.6706 14.3909 17.5183 14.2987 17.3487 14.2641L15.8382 13.9641C16.0918 13.77 16.3839 13.6323 16.695 13.5601C17.0061 13.4879 17.329 13.483 17.6422 13.5456C17.9553 13.6082 18.2515 13.7369 18.5109 13.9232C18.7704 14.1094 18.987 14.3489 19.1465 14.6256C19.2124 14.7398 19.3072 14.8345 19.4213 14.9003C19.5355 14.9662 19.665 15.0008 19.7967 15.0006H29.6037C29.7355 15.0008 29.865 14.9662 29.9792 14.9003C30.0933 14.8345 30.1881 14.7398 30.254 14.6256C30.4134 14.3489 30.6301 14.1094 30.8895 13.9232C31.1489 13.7369 31.4451 13.6082 31.7583 13.5456C32.0714 13.483 32.3944 13.4879 32.7055 13.5601C33.0165 13.6323 33.3086 13.77 33.5622 13.9641L32.0517 14.2641C31.8817 14.2981 31.7286 14.39 31.6187 14.5242C31.5087 14.6583 31.4487 14.8264 31.4487 14.9999V16.4999C31.4488 16.6773 31.5117 16.849 31.6264 16.9844C31.7411 17.1197 31.9 17.2101 32.075 17.2394L33.6147 17.4966C33.215 17.8228 32.7147 18.0007 32.1987 17.9999Z" fill="#FDB515"/>
</svg>
