<svg width="196" height="16" viewBox="0 0 196 16" fill="none" xmlns="http://www.w3.org/2000/svg">
<g clip-path="url(#clip0_76_3447)">
<path d="M12.3774 13.0141L13.3864 15.6153H18.0181L11.8563 0.380371H6.15766L0 15.6153H4.5862L5.59524 13.0141H12.3774ZM8.9863 4.18497L10.81 8.9035H7.16671L8.9863 4.18497Z" fill="#A9ABAC"/>
<path d="M28.7913 0.380371L25.0363 11.1036L21.2565 0.380371H16.3809L22.1043 15.6153H27.9022L33.6256 0.380371H28.7913Z" fill="#A9ABAC"/>
<path d="M68.0532 15.6153V0.380371H63.6738V8.2377L56.7841 0.380371H52.1855V15.6153H56.565V6.8606L64.2403 15.6153H68.0532Z" fill="#A9ABAC"/>
<path d="M86.4343 0.380371H70.7031V4.49099H76.3811V15.6153H80.7605V4.49099H86.4343V0.380371Z" fill="#A9ABAC"/>
<path d="M97.811 13.0141L98.82 15.6153H103.452L97.2899 0.380371H91.5913L85.4336 15.6153H90.0198L91.0288 13.0141H97.811ZM94.4158 4.18497L96.2395 8.9035H92.5962L94.4158 4.18497Z" fill="#A9ABAC"/>
<path d="M114.505 0H111.792C106.28 0.0620315 104.576 1.76583 104.51 7.28664V8.7175C104.576 14.23 106.28 15.9338 111.796 16H113.769C119.505 15.9132 121.006 14.5071 121.072 9.16413V6.37271H112.95V9.80925H116.515V10.045C116.515 11.6785 115.527 11.848 113.277 11.848H112.131C109.497 11.848 108.893 11.2401 108.893 8.60584V7.39416C108.893 4.75989 109.497 4.15611 112.131 4.15611H113.703C115.469 4.15611 116.159 4.37116 116.428 5.0535H121.047C120.923 0.884983 117.441 0.00413544 114.509 0.00413544L114.505 0Z" fill="white"/>
<path d="M131.23 15.9999H132.574C138.086 15.9337 139.79 14.2299 139.856 8.71327V0.380371H135.481V8.60575C135.481 11.24 134.873 11.8479 132.239 11.8479H131.565C128.93 11.8479 128.327 11.24 128.327 8.60575V0.380371H123.947V8.71741C124.013 14.2299 125.717 15.9337 131.23 15.9999Z" fill="white"/>
<path d="M153.408 13.0141L154.417 15.6153H159.049L152.891 0.380371H147.193L141.035 15.6153H145.621L146.63 13.0141H153.413H153.408ZM150.017 4.18497L151.841 8.9035H148.198L150.017 4.18497Z" fill="white"/>
<path d="M195.996 7.66287C195.996 2.42328 193.767 0.380371 188.043 0.380371H180.041V15.6153H188.043C193.767 15.6153 195.996 13.5724 195.996 8.33281V7.65874V7.66287ZM191.62 8.22529C191.62 10.5908 190.524 11.5088 187.704 11.5088H184.42V4.49099H187.704C190.52 4.49099 191.62 5.4132 191.62 7.77453V8.22529Z" fill="white"/>
<path d="M50.0022 15.6153L43.8446 0.380371H38.1459L31.9883 15.6153H36.5703L37.5256 13.1671L40.9746 4.18497L45.3747 15.6153H50.0022Z" fill="#FDB515"/>
<path d="M172.468 15.6153H177.377L174.214 10.1069L174.458 10.0035C176.273 9.24673 177.232 7.70008 177.232 5.52897C177.232 2.1131 175.289 0.376221 171.451 0.376221H161.232V4.48684H171.567C172.688 4.48684 172.853 5.08235 172.853 5.43799C172.853 5.87221 172.63 6.38914 171.567 6.38914H161.232V15.6112H165.612V10.4956H169.665L172.468 15.6112V15.6153Z" fill="white"/>
<path d="M42.6529 15.6153L40.9739 11.2566L39.2949 15.6153H42.6529Z" fill="#FDB515"/>
</g>
<defs>
<clipPath id="clip0_76_3447">
<rect width="195.995" height="16" fill="white"/>
</clipPath>
</defs>
</svg>
