<svg width="48" height="48" viewBox="0 0 48 48" fill="none" xmlns="http://www.w3.org/2000/svg">
<path d="M45 29.3565V27C44.9974 24.6138 44.0484 22.3262 42.3611 20.6389C40.6738 18.9516 38.3862 18.0026 36 18H27.75C22.7342 17.9991 17.8929 19.8408 14.1458 23.175L13.4085 23.8312L11.7922 21H12.75C13.5456 21 14.3087 20.6839 14.8713 20.1213C15.4339 19.5587 15.75 18.7956 15.75 18C15.75 17.8011 15.829 17.6103 15.9697 17.4697C16.1103 17.329 16.3011 17.25 16.5 17.25H22.125C22.8212 17.25 23.4889 16.9734 23.9812 16.4812C24.4734 15.9889 24.75 15.3212 24.75 14.625C24.75 13.9288 24.4734 13.2611 23.9812 12.7688C23.4889 12.2766 22.8212 12 22.125 12C22.0255 12 21.9302 11.9605 21.8598 11.8902C21.7895 11.8198 21.75 11.7245 21.75 11.625V9.75H20.25V11.625C20.25 12.1223 20.4475 12.5992 20.7992 12.9508C21.1508 13.3025 21.6277 13.5 22.125 13.5C22.4234 13.5 22.7095 13.6185 22.9205 13.8295C23.1315 14.0405 23.25 14.3266 23.25 14.625C23.25 14.9234 23.1315 15.2095 22.9205 15.4205C22.7095 15.6315 22.4234 15.75 22.125 15.75H16.5C15.9033 15.75 15.331 15.9871 14.909 16.409C14.4871 16.831 14.25 17.4033 14.25 18C14.25 18.3978 14.092 18.7794 13.8107 19.0607C13.5294 19.342 13.1478 19.5 12.75 19.5H11.25C10.4544 19.5 9.69129 19.8161 9.12868 20.3787C8.56607 20.9413 8.25 21.7044 8.25 22.5H9.75C9.75054 22.2847 9.79775 22.0721 9.88839 21.8769C9.97902 21.6816 10.1109 21.5084 10.275 21.369L12.2948 24.9L4.3095 25.95C3.72712 26.0769 3.20553 26.3989 2.83102 26.8626C2.45651 27.3263 2.25153 27.904 2.25 28.5V30.75H1.5C1.30109 30.75 1.11032 30.829 0.96967 30.9697C0.829018 31.1103 0.75 31.3011 0.75 31.5V34.5C0.75 34.6989 0.829018 34.8897 0.96967 35.0303C1.11032 35.171 1.30109 35.25 1.5 35.25H6.8175C6.99377 36.2981 7.53576 37.2499 8.34723 37.9363C9.15871 38.6227 10.1872 38.9993 11.25 38.9993C12.3128 38.9993 13.3413 38.6227 14.1528 37.9363C14.9642 37.2499 15.5062 36.2981 15.6825 35.25H33.0675C33.2438 36.2981 33.7858 37.2499 34.5972 37.9363C35.4087 38.6227 36.4372 38.9993 37.5 38.9993C38.5628 38.9993 39.5913 38.6227 40.4028 37.9363C41.2142 37.2499 41.7562 36.2981 41.9325 35.25H44.25C44.9792 35.2509 45.6837 34.9856 46.2313 34.504C46.7788 34.0223 47.1317 33.3574 47.2238 32.634C47.3158 31.9106 47.1407 31.1784 46.7313 30.575C46.3218 29.9715 45.7062 29.5383 45 29.3565ZM41.733 29.25C40.9483 28.6145 40.0307 28.1637 39.0481 27.931C38.0655 27.6984 37.0432 27.6897 36.0568 27.9058C35.0705 28.1219 34.1454 28.5572 33.3501 29.1793C32.5548 29.8015 31.9096 30.5946 31.4625 31.5H17.2875C16.8246 30.5617 16.1493 29.7444 15.315 29.113C14.4808 28.4815 13.5108 28.0534 12.4821 27.8627C11.4534 27.672 10.3944 27.724 9.38929 28.0144C8.38418 28.3048 7.46069 28.8257 6.69225 29.5358C6.73021 29.4453 6.74984 29.3481 6.75 29.25V27.1425L13.5975 26.2425C13.7778 26.2189 13.9433 26.1305 14.0634 25.9939C14.1834 25.8574 14.2497 25.6818 14.25 25.5H43.35C43.4503 25.9937 43.5006 26.4962 43.5 27V29.25H41.733ZM17.826 33H30.924C30.8666 33.2473 30.8232 33.4977 30.7942 33.75H17.9557C17.9268 33.4977 17.8834 33.2473 17.826 33ZM35.25 24H30V19.5H35.25V24ZM42.8693 24H36.75V19.5382C38.0737 19.6736 39.3377 20.158 40.4128 20.9419C41.4879 21.7258 42.3356 22.7811 42.8693 24ZM28.5 19.5V24H15.504C18.9246 21.0977 23.264 19.5031 27.75 19.5H28.5ZM4.5645 27.429L5.25 27.339V28.5H3.75C3.74863 28.2566 3.82777 28.0197 3.97508 27.826C4.12239 27.6323 4.32962 27.4927 4.5645 27.429ZM3.75 30H6C6.09813 29.9998 6.19526 29.9802 6.28575 29.9422C6.05071 30.1947 5.83533 30.4647 5.6415 30.75H3.75V30ZM2.25 32.25H4.89375C4.71956 32.7348 4.60228 33.2382 4.54425 33.75H2.25V32.25ZM11.25 37.5C10.6567 37.5 10.0766 37.3241 9.58329 36.9944C9.08994 36.6648 8.70542 36.1962 8.47836 35.6481C8.2513 35.0999 8.19189 34.4967 8.30764 33.9147C8.4234 33.3328 8.70912 32.7982 9.12868 32.3787C9.54824 31.9591 10.0828 31.6734 10.6647 31.5576C11.2467 31.4419 11.8499 31.5013 12.3981 31.7284C12.9462 31.9554 13.4148 32.3399 13.7444 32.8333C14.0741 33.3266 14.25 33.9067 14.25 34.5C14.25 35.2956 13.9339 36.0587 13.3713 36.6213C12.8087 37.1839 12.0456 37.5 11.25 37.5ZM11.25 30C10.1876 30.002 9.16006 30.3794 8.34898 31.0656C7.53789 31.7518 6.99545 32.7026 6.8175 33.75H6.06C6.23933 32.5014 6.8628 31.3592 7.81609 30.5331C8.76937 29.7069 9.98854 29.2521 11.25 29.2521C12.5115 29.2521 13.7306 29.7069 14.6839 30.5331C15.6372 31.3592 16.2607 32.5014 16.44 33.75H15.6825C15.5045 32.7026 14.9621 31.7518 14.151 31.0656C13.3399 30.3794 12.3124 30.002 11.25 30ZM37.5 37.5C36.9067 37.5 36.3266 37.3241 35.8333 36.9944C35.3399 36.6648 34.9554 36.1962 34.7284 35.6481C34.5013 35.0999 34.4419 34.4967 34.5576 33.9147C34.6734 33.3328 34.9591 32.7982 35.3787 32.3787C35.7982 31.9591 36.3328 31.6734 36.9147 31.5576C37.4967 31.4419 38.0999 31.5013 38.6481 31.7284C39.1962 31.9554 39.6648 32.3399 39.9944 32.8333C40.3241 33.3266 40.5 33.9067 40.5 34.5C40.5 35.2956 40.1839 36.0587 39.6213 36.6213C39.0587 37.1839 38.2957 37.5 37.5 37.5ZM37.5 30C36.4376 30.002 35.4101 30.3794 34.599 31.0656C33.7879 31.7518 33.2455 32.7026 33.0675 33.75H32.31C32.4893 32.5014 33.1128 31.3592 34.0661 30.5331C35.0194 29.7069 36.2385 29.2521 37.5 29.2521C38.7615 29.2521 39.9806 29.7069 40.9339 30.5331C41.8872 31.3592 42.5107 32.5014 42.69 33.75H41.9325C41.7545 32.7026 41.2121 31.7518 40.401 31.0656C39.5899 30.3794 38.5624 30.002 37.5 30ZM44.25 33.75H44.2057C44.0873 32.6761 43.7108 31.6469 43.1085 30.75H44.25C44.6478 30.75 45.0294 30.908 45.3107 31.1893C45.592 31.4706 45.75 31.8522 45.75 32.25C45.75 32.6478 45.592 33.0294 45.3107 33.3107C45.0294 33.592 44.6478 33.75 44.25 33.75Z" fill="#A7A7A7"/>
<path d="M11.25 36C12.0784 36 12.75 35.3284 12.75 34.5C12.75 33.6716 12.0784 33 11.25 33C10.4216 33 9.75 33.6716 9.75 34.5C9.75 35.3284 10.4216 36 11.25 36Z" fill="#A7A7A7"/>
<path d="M37.5 36C38.3284 36 39 35.3284 39 34.5C39 33.6716 38.3284 33 37.5 33C36.6716 33 36 33.6716 36 34.5C36 35.3284 36.6716 36 37.5 36Z" fill="#A7A7A7"/>
<path d="M27.75 26.25H24.75V27.75H27.75V26.25Z" fill="#A7A7A7"/>
<path d="M6.75 19.5C6.75 18.9033 6.98705 18.331 7.40901 17.909C7.83097 17.4871 8.40326 17.25 9 17.25H10.875C11.3723 17.25 11.8492 17.0525 12.2008 16.7008C12.5525 16.3492 12.75 15.8723 12.75 15.375C12.75 14.8777 12.5525 14.4008 12.2008 14.0492C11.8492 13.6975 11.3723 13.5 10.875 13.5H9.375C9.27554 13.5 9.18016 13.4605 9.10983 13.3902C9.03951 13.3198 9 13.2245 9 13.125C9 13.0255 9.03951 12.9302 9.10983 12.8598C9.18016 12.7895 9.27554 12.75 9.375 12.75H15.75C16.5456 12.75 17.3087 12.4339 17.8713 11.8713C18.4339 11.3087 18.75 10.5456 18.75 9.75H17.25C17.25 10.1478 17.092 10.5294 16.8107 10.8107C16.5294 11.092 16.1478 11.25 15.75 11.25H9.375C8.87772 11.25 8.40081 11.4475 8.04917 11.7992C7.69754 12.1508 7.5 12.6277 7.5 13.125C7.5 13.6223 7.69754 14.0992 8.04917 14.4508C8.40081 14.8025 8.87772 15 9.375 15H10.875C10.9745 15 11.0698 15.0395 11.1402 15.1098C11.2105 15.1802 11.25 15.2755 11.25 15.375C11.25 15.4745 11.2105 15.5698 11.1402 15.6402C11.0698 15.7105 10.9745 15.75 10.875 15.75H9C8.9325 15.75 8.87025 15.7665 8.8035 15.7695L8.151 14.628L6.849 15.375L7.3065 16.176C6.69058 16.4866 6.17253 16.9614 5.8096 17.5481C5.44668 18.1347 5.25301 18.8102 5.25 19.5V22.5H6.75V19.5Z" fill="#A7A7A7"/>
<path d="M2.24991 19.9395C1.76975 20.4197 1.5 21.0709 1.5 21.75C1.5 22.429 1.76975 23.0803 2.24991 23.5605L3.21966 24.5302L4.28016 23.4697L3.31116 22.5C3.21265 22.4015 3.1345 22.2846 3.08119 22.1559C3.02787 22.0272 3.00043 21.8893 3.00043 21.75C3.00043 21.6107 3.02787 21.4728 3.08119 21.3441C3.1345 21.2154 3.21265 21.0985 3.31116 21L3.74991 20.5605C4.23006 20.0803 4.49981 19.429 4.49981 18.75C4.49981 18.0709 4.23006 17.4197 3.74991 16.9395L2.78016 15.9697L1.71966 17.0302L2.68866 18C2.78717 18.0985 2.86531 18.2154 2.91863 18.3441C2.97194 18.4728 2.99938 18.6107 2.99938 18.75C2.99938 18.8893 2.97194 19.0272 2.91863 19.1559C2.86531 19.2846 2.78717 19.4015 2.68866 19.5L2.24991 19.9395Z" fill="#A7A7A7"/>
</svg>
