<svg width="48" height="48" viewBox="0 0 48 48" fill="none" xmlns="http://www.w3.org/2000/svg">
<path d="M27.75 42.75H23.25V44.25H27.75V42.75Z" fill="#A7A7A7"/>
<path d="M33.1491 33.765L26.3241 32.4C27.9091 31.8608 29.3491 30.9647 30.5331 29.781C30.6384 29.6759 30.7101 29.5419 30.7391 29.396C30.768 29.25 30.7529 29.0987 30.6957 28.9614C30.6384 28.8241 30.5416 28.7069 30.4176 28.6247C30.2935 28.5425 30.1479 28.4991 29.9991 28.5C29.4023 28.5 28.83 28.2629 28.4081 27.841C27.9861 27.419 27.7491 26.8467 27.7491 26.25V25.4565C28.2296 24.968 28.499 24.3102 28.499 23.625C28.499 22.9398 28.2296 22.282 27.7491 21.7935V17.25C27.7479 16.2558 27.3524 15.3027 26.6494 14.5997C25.9464 13.8967 24.9933 13.5012 23.9991 13.5H23.9241C23.7501 12.6535 23.2896 11.8929 22.6201 11.3464C21.9507 10.7999 21.1133 10.501 20.2491 10.5H15.7491C14.1583 10.5018 12.6332 11.1345 11.5084 12.2593C10.3836 13.3842 9.75085 14.9092 9.74907 16.5V21.7935C9.26849 22.282 8.99916 22.9398 8.99916 23.625C8.99916 24.3102 9.26849 24.968 9.74907 25.4565V26.25C9.74907 26.8467 9.51201 27.419 9.09006 27.841C8.6681 28.2629 8.0958 28.5 7.49907 28.5C7.35075 28.5 7.20578 28.544 7.08247 28.6264C6.95917 28.7089 6.86306 28.826 6.80631 28.963C6.74956 29.1 6.7347 29.2508 6.76363 29.3963C6.79256 29.5417 6.86396 29.6754 6.96882 29.7803C8.15301 30.9643 9.59327 31.8605 11.1786 32.4L4.35357 33.7658C4.20659 33.7954 4.07187 33.8684 3.96679 33.9753C3.86171 34.0823 3.7911 34.2183 3.76407 34.3657L1.51407 46.3657C1.49444 46.4736 1.4987 46.5844 1.52654 46.6905C1.55438 46.7965 1.60512 46.8951 1.67519 46.9794C1.74526 47.0637 1.83295 47.1316 1.93211 47.1784C2.03126 47.2251 2.13945 47.2496 2.24907 47.25H35.2491C35.3592 47.2499 35.4679 47.2255 35.5676 47.1787C35.6672 47.1318 35.7554 47.0636 35.8257 46.9788C35.896 46.894 35.9467 46.7948 35.9744 46.6882C36.002 46.5816 36.0058 46.4702 35.9856 46.362L33.7356 34.362C33.7082 34.2155 33.6378 34.0804 33.5333 33.9741C33.4289 33.8678 33.2951 33.795 33.1491 33.765ZM22.5148 36.9L23.1696 40.1737L19.9708 42.459L22.3041 33.1252L25.5651 33.7777L22.7623 36.1777C22.6597 36.2646 22.5826 36.3776 22.539 36.5047C22.4954 36.6319 22.4871 36.7685 22.5148 36.9ZM14.7381 36.1838L11.9353 33.7837L15.1956 33.1312L17.5281 42.462L14.3301 40.1768L14.9848 36.903C15.0121 36.7715 15.0036 36.6352 14.9602 36.5081C14.9168 36.3811 14.8401 36.268 14.7381 36.1808V36.1838ZM26.9991 23.625C26.9991 23.9234 26.8805 24.2095 26.6696 24.4205C26.4586 24.6315 26.1724 24.75 25.8741 24.75H25.4991V22.5H25.8741C26.1724 22.5 26.4586 22.6185 26.6696 22.8295C26.8805 23.0405 26.9991 23.3266 26.9991 23.625ZM23.9991 23.0947L23.5813 24.0697C23.1136 25.1625 22.3353 26.0939 21.3429 26.7482C20.3505 27.4024 19.1877 27.7508 17.9991 27.75V29.25C19.0553 29.2488 20.0996 29.0261 21.0643 28.5961C22.0291 28.1662 22.893 27.5386 23.6001 26.754C23.1357 27.8762 22.2966 28.8026 21.2258 29.3755C20.155 29.9484 18.9186 30.1324 17.7274 29.8961C16.5362 29.6597 15.4637 29.0177 14.6927 28.0794C13.9217 27.1411 13.4999 25.9645 13.4991 24.75V21H14.9991C15.8406 20.9991 16.6652 20.7627 17.3793 20.3175C18.0935 19.8722 18.6688 19.236 19.0401 18.4808C19.6375 19.2314 20.3897 19.8445 21.2455 20.2782C22.1012 20.7119 23.0404 20.9561 23.9991 20.994V23.0947ZM18.7491 31.5C19.5161 31.4985 20.2771 31.3653 20.9991 31.1062V32.1562L18.7491 41.1562L16.4991 32.1562V31.1062C17.221 31.3653 17.9821 31.4985 18.7491 31.5ZM28.4001 29.6415C26.7686 30.8537 24.7888 31.5057 22.7563 31.5H22.4991V30.3585C23.9301 29.3989 24.9412 27.9295 25.3258 26.25H25.8741C25.9998 26.2464 26.1252 26.2336 26.2491 26.2118V26.25C26.2498 26.961 26.4524 27.6573 26.8333 28.2577C27.2142 28.8581 27.7571 29.338 28.4001 29.6415ZM15.7491 12H20.2491C20.8458 12 21.4181 12.2371 21.8401 12.659C22.262 13.081 22.4991 13.6533 22.4991 14.25C22.4991 14.4489 22.5781 14.6397 22.7187 14.7803C22.8594 14.921 23.0502 15 23.2491 15H23.9991C24.5958 15 25.1681 15.2371 25.5901 15.659C26.012 16.081 26.2491 16.6533 26.2491 17.25V21.0382C26.1252 21.0164 25.9998 21.0036 25.8741 21H25.4991V20.25C25.4991 20.0511 25.4201 19.8603 25.2794 19.7197C25.1387 19.579 24.948 19.5 24.7491 19.5H24.2886C23.2453 19.5036 22.2251 19.1926 21.3613 18.6077C20.4974 18.0228 19.8299 17.191 19.4458 16.221C19.3812 16.0589 19.2621 15.9243 19.109 15.8406C18.9559 15.7568 18.7784 15.7291 18.607 15.7621C18.4357 15.7952 18.2812 15.8869 18.1702 16.0216C18.0593 16.1563 17.9987 16.3255 17.9991 16.5C17.9991 17.2956 17.683 18.0587 17.1204 18.6213C16.5578 19.1839 15.7947 19.5 14.9991 19.5H12.7491C12.5502 19.5 12.3594 19.579 12.2187 19.7197C12.0781 19.8603 11.9991 20.0511 11.9991 20.25V21H11.6241C11.4983 21.0036 11.373 21.0164 11.2491 21.0382V16.5C11.2503 15.3069 11.7247 14.163 12.5684 13.3193C13.4121 12.4757 14.556 12.0012 15.7491 12ZM10.4991 23.625C10.4991 23.3266 10.6176 23.0405 10.8286 22.8295C11.0395 22.6185 11.3257 22.5 11.6241 22.5H11.9991V24.75H11.6241C11.3257 24.75 11.0395 24.6315 10.8286 24.4205C10.6176 24.2095 10.4991 23.9234 10.4991 23.625ZM11.2491 26.25V26.2118C11.373 26.2336 11.4983 26.2464 11.6241 26.25H12.1738C12.5581 27.9293 13.5686 29.3987 14.9991 30.3585V31.5H14.7411C12.7083 31.5058 10.7282 30.8539 9.09657 29.6415C9.73971 29.3381 10.2835 28.8582 10.6645 28.2578C11.0456 27.6574 11.2483 26.9611 11.2491 26.25ZM5.14332 35.136L10.0663 34.1512L13.4278 37.0335L12.7648 40.35C12.7365 40.4917 12.7498 40.6387 12.803 40.773C12.8562 40.9074 12.9471 41.0236 13.0648 41.1075L17.9991 44.6355V45.75H8.24907V39H6.74907V45.75H3.15357L5.14332 35.136ZM30.7491 45.75V39H29.2491V45.75H19.4991V44.6355L24.4348 41.1105C24.5525 41.0266 24.6434 40.9104 24.6966 40.776C24.7499 40.6416 24.7631 40.4947 24.7348 40.353L24.0741 37.0335L27.4356 34.1512L32.3586 35.136L34.3491 45.75H30.7491Z" fill="#A7A7A7"/>
<path d="M45.75 5.25024C44.2582 5.25182 42.7892 4.88429 41.4739 4.18039C40.1586 3.47649 39.038 2.45809 38.2118 1.21599L38.124 1.08399C38.0514 0.986977 37.9573 0.908223 37.8489 0.853976C37.7406 0.799729 37.6211 0.771484 37.5 0.771484C37.3789 0.771484 37.2594 0.799729 37.1511 0.853976C37.0427 0.908223 36.9486 0.986977 36.876 1.08399L36.7882 1.21599C35.962 2.45809 34.8414 3.47649 33.5261 4.18039C32.2108 4.88429 30.7418 5.25182 29.25 5.25024C29.0511 5.25024 28.8603 5.32925 28.7197 5.46991C28.579 5.61056 28.5 5.80132 28.5 6.00024V10.7252C28.5067 13.4498 29.3485 16.1069 30.9118 18.3384C32.4752 20.5698 34.685 22.2684 37.2435 23.2052C37.4092 23.2655 37.5908 23.2655 37.7565 23.2052C40.315 22.2684 42.5248 20.5698 44.0882 18.3384C45.6515 16.1069 46.4933 13.4498 46.5 10.7252V6.00024C46.5 5.80132 46.421 5.61056 46.2803 5.46991C46.1397 5.32925 45.9489 5.25024 45.75 5.25024ZM45 10.7252C44.994 13.0954 44.2756 15.409 42.9382 17.3657C41.6008 19.3225 39.7061 20.8321 37.5 21.6985C35.2939 20.8321 33.3992 19.3225 32.0618 17.3657C30.7244 15.409 30.006 13.0954 30 10.7252V6.72399C31.455 6.62221 32.8729 6.21926 34.164 5.54067C35.4551 4.86209 36.5911 3.92268 37.5 2.78199C38.4089 3.92268 39.5449 4.86209 40.836 5.54067C42.1271 6.21926 43.545 6.62221 45 6.72399V10.7252Z" fill="#A7A7A7"/>
<path d="M33.75 8.99998C33.7524 9.57949 33.8892 10.1505 34.1494 10.6683C34.4097 11.1861 34.7864 11.6365 35.25 11.9842V17.25C35.2502 17.3981 35.2941 17.5429 35.376 17.6662L36.876 19.9162C36.9445 20.0189 37.0373 20.1032 37.1461 20.1614C37.255 20.2197 37.3765 20.2501 37.5 20.2501C37.6235 20.2501 37.745 20.2197 37.8539 20.1614C37.9627 20.1032 38.0555 20.0189 38.124 19.9162L39.624 17.6662C39.7202 17.5219 39.7634 17.3488 39.7464 17.1762C39.7293 17.0036 39.6529 16.8423 39.5303 16.7197L39.1628 16.3522L39.6713 15.336C39.7417 15.1951 39.766 15.0356 39.7407 14.8801C39.7154 14.7246 39.6418 14.581 39.5303 14.4697L39.1628 14.1022L39.6713 13.086C39.7233 12.9816 39.7502 12.8666 39.75 12.75V11.9842C40.2594 11.5999 40.6622 11.0919 40.92 10.5082C41.1779 9.92454 41.2824 9.28467 41.2235 8.6493C41.1647 8.01392 40.9444 7.40413 40.5837 6.87778C40.223 6.35144 39.7337 5.92599 39.1624 5.64183C38.5911 5.35767 37.9566 5.22421 37.3192 5.25412C36.6818 5.28403 36.0627 5.47631 35.5205 5.81272C34.9782 6.14914 34.531 6.61852 34.2211 7.17634C33.9113 7.73415 33.7491 8.36189 33.75 8.99998ZM39.75 8.99998C39.7502 9.39326 39.6462 9.77956 39.4486 10.1196C39.251 10.4596 38.9668 10.7412 38.625 10.9357C38.5112 11.0014 38.4167 11.0959 38.3509 11.2096C38.2851 11.3233 38.2503 11.4523 38.25 11.5837V12.573L37.575 13.9147C37.5046 14.0556 37.4803 14.2151 37.5056 14.3706C37.5309 14.5261 37.6045 14.6697 37.716 14.781L38.0835 15.1477L37.575 16.1647C37.5046 16.3056 37.4803 16.4651 37.5056 16.6206C37.5309 16.7761 37.6045 16.9197 37.716 17.031L38.031 17.3452L37.5 18.15L36.75 17.025V11.5837C36.7497 11.4523 36.715 11.3233 36.6491 11.2096C36.5833 11.0959 36.4888 11.0014 36.375 10.9357C36.0332 10.7412 35.749 10.4596 35.5514 10.1196C35.3538 9.77956 35.2498 9.39326 35.25 8.99998C35.25 8.40324 35.4871 7.83095 35.909 7.40899C36.331 6.98703 36.9033 6.74998 37.5 6.74998C38.0967 6.74998 38.669 6.98703 39.091 7.40899C39.5129 7.83095 39.75 8.40324 39.75 8.99998Z" fill="#A7A7A7"/>
<path d="M38.25 7.5H36.75V9H38.25V7.5Z" fill="#A7A7A7"/>
</svg>
