<svg width="49" height="48" viewBox="0 0 49 48" fill="none" xmlns="http://www.w3.org/2000/svg">
<path d="M14.8496 38.25H19.3496C19.5485 38.25 19.7393 38.171 19.8799 38.0303C20.0206 37.8897 20.0996 37.6989 20.0996 37.5V36H18.5996V36.75H15.5996V35.5605L16.5694 36.5303C16.71 36.6709 16.9007 36.7498 17.0996 36.7498C17.2985 36.7498 17.4892 36.6709 17.6299 36.5303L20.6299 33.5303L19.5694 32.4697L17.0996 34.9395L16.1299 33.9697L15.5996 34.5V33.75H17.8496V32.25H14.8496C14.6507 32.25 14.4599 32.329 14.3193 32.4697C14.1786 32.6103 14.0996 32.8011 14.0996 33V37.5C14.0996 37.6989 14.1786 37.8897 14.3193 38.0303C14.4599 38.171 14.6507 38.25 14.8496 38.25Z" fill="#A7A7A7"/>
<path d="M39.5996 2.25H29.8496V1.5C29.8496 1.30109 29.7706 1.11032 29.6299 0.96967C29.4893 0.829018 29.2985 0.75 29.0996 0.75H20.0996C19.9007 0.75 19.7099 0.829018 19.5693 0.96967C19.4286 1.11032 19.3496 1.30109 19.3496 1.5V2.25H9.59961C8.80396 2.25 8.0409 2.56607 7.47829 3.12868C6.91568 3.69129 6.59961 4.45435 6.59961 5.25V44.25C6.59961 45.0457 6.91568 45.8087 7.47829 46.3713C8.0409 46.9339 8.80396 47.25 9.59961 47.25H39.5996C40.3953 47.25 41.1583 46.9339 41.7209 46.3713C42.2835 45.8087 42.5996 45.0457 42.5996 44.25V5.25C42.5996 4.45435 42.2835 3.69129 41.7209 3.12868C41.1583 2.56607 40.3953 2.25 39.5996 2.25ZM41.0996 5.25V39H38.0996V3.75H39.5996C39.9974 3.75 40.379 3.90804 40.6603 4.18934C40.9416 4.47064 41.0996 4.85218 41.0996 5.25ZM41.0246 40.5C40.8507 41.3465 40.3901 42.1071 39.7207 42.6536C39.0512 43.2001 38.2138 43.4991 37.3496 43.5H20.0246C20.849 42.6948 21.3851 41.6405 21.5501 40.5H41.0246ZM20.8496 2.25H28.3496V3.75C28.3496 4.14782 28.1916 4.52936 27.9103 4.81066C27.629 5.09196 27.2474 5.25 26.8496 5.25H22.3496C21.9518 5.25 21.5703 5.09196 21.2889 4.81066C21.0076 4.52936 20.8496 4.14782 20.8496 3.75V2.25ZM22.3496 6.75H26.8496C27.6453 6.75 28.4083 6.43393 28.9709 5.87132C29.5335 5.30871 29.8496 4.54565 29.8496 3.75H36.5996V39H20.8496C20.6507 39 20.4599 39.079 20.3193 39.2197C20.1786 39.3603 20.0996 39.5511 20.0996 39.75C20.0996 40.7446 19.7045 41.6984 19.0013 42.4016C18.298 43.1049 17.3442 43.5 16.3496 43.5C15.355 43.5 14.4012 43.1049 13.698 42.4016C12.9947 41.6984 12.5996 40.7446 12.5996 39.75V3.75H19.3496C19.3496 4.54565 19.6657 5.30871 20.2283 5.87132C20.7909 6.43393 21.554 6.75 22.3496 6.75ZM41.0996 44.25C41.0996 44.6478 40.9416 45.0294 40.6603 45.3107C40.379 45.592 39.9974 45.75 39.5996 45.75H9.59961C9.20178 45.75 8.82025 45.592 8.53895 45.3107C8.25764 45.0294 8.09961 44.6478 8.09961 44.25V5.25C8.09961 4.85218 8.25764 4.47064 8.53895 4.18934C8.82025 3.90804 9.20178 3.75 9.59961 3.75H11.0996V39.75C11.1014 41.1418 11.6551 42.4762 12.6393 43.4603C13.6235 44.4445 14.9578 44.9982 16.3496 45H37.3496C38.0488 45.0002 38.7409 44.8601 39.385 44.5882C40.0291 44.3162 40.6121 43.9179 41.0996 43.4167V44.25Z" fill="#A7A7A7"/>
<path d="M14.8496 15.75H20.8496C21.0485 15.75 21.2393 15.671 21.3799 15.5303C21.5206 15.3897 21.5996 15.1989 21.5996 15V9C21.5996 8.80109 21.5206 8.61032 21.3799 8.46967C21.2393 8.32902 21.0485 8.25 20.8496 8.25H14.8496C14.6507 8.25 14.4599 8.32902 14.3193 8.46967C14.1786 8.61032 14.0996 8.80109 14.0996 9V15C14.0996 15.1989 14.1786 15.3897 14.3193 15.5303C14.4599 15.671 14.6507 15.75 14.8496 15.75ZM15.5996 9.75H20.0996V14.25H15.5996V9.75Z" fill="#A7A7A7"/>
<path d="M23.8496 12.75H34.3496C34.5485 12.75 34.7393 12.671 34.8799 12.5303C35.0206 12.3897 35.0996 12.1989 35.0996 12V9C35.0996 8.80109 35.0206 8.61032 34.8799 8.46967C34.7393 8.32902 34.5485 8.25 34.3496 8.25H23.8496C23.6507 8.25 23.4599 8.32902 23.3193 8.46967C23.1786 8.61032 23.0996 8.80109 23.0996 9V12C23.0996 12.1989 23.1786 12.3897 23.3193 12.5303C23.4599 12.671 23.6507 12.75 23.8496 12.75ZM24.5996 9.75H33.5996V11.25H24.5996V9.75Z" fill="#A7A7A7"/>
<path d="M23.0996 14.25H35.0996V15.75H23.0996V14.25Z" fill="#A7A7A7"/>
<path d="M14.0996 17.25H35.0996V18.75H14.0996V17.25Z" fill="#A7A7A7"/>
<path d="M14.0996 20.25H35.0996V21.75H14.0996V20.25Z" fill="#A7A7A7"/>
<path d="M14.0996 23.25H35.0996V24.75H14.0996V23.25Z" fill="#A7A7A7"/>
<path d="M14.0996 26.25H35.0996V27.75H14.0996V26.25Z" fill="#A7A7A7"/>
<path d="M14.0996 29.25H35.0996V30.75H14.0996V29.25Z" fill="#A7A7A7"/>
<path d="M22.3496 32.25H35.0996V33.75H22.3496V32.25Z" fill="#A7A7A7"/>
<path d="M22.3496 35.25H35.0996V36.75H22.3496V35.25Z" fill="#A7A7A7"/>
</svg>
